<svg width="1527" height="1527" viewBox="0 0 1527 1527" fill="none" xmlns="http://www.w3.org/2000/svg">
<path d="M449.373 266.191L689.69 506.508L689.692 630.843L827.366 768.517L827.366 900.109L919.473 992.216C919.778 992.521 919.778 993.017 919.473 993.322C919.167 993.627 918.672 993.627 918.367 993.322L825.802 900.757L825.802 769.165L688.128 631.491L688.127 507.156L448.267 267.297C447.962 266.992 447.962 266.496 448.267 266.191C448.573 265.886 449.068 265.886 449.373 266.191Z" fill="#2A96F0"/>
<path d="M880.034 814.086L1153.77 1087.82C1154.07 1088.13 1154.07 1088.62 1153.77 1088.93C1153.46 1089.23 1152.97 1089.23 1152.66 1088.93L879.387 815.65L723 815.648L622.22 714.868L622.22 598.612L561.49 537.881L262.618 537.88C262.186 537.88 261.836 537.53 261.836 537.098C261.836 536.667 262.186 536.317 262.618 536.317L562.138 536.318L623.784 597.964L623.784 714.22L723.648 814.085L880.034 814.086Z" fill="#2A96F0"/>
<path d="M459.289 39.8118L776.572 357.095L776.572 673.801L881.232 778.461L881.231 911.945L1072.63 1103.35C1073.24 1103.96 1073.24 1104.95 1072.63 1105.56C1072.02 1106.17 1071.03 1106.17 1070.42 1105.56L878.104 913.241L878.105 779.757L773.445 675.097L773.445 358.391L457.077 42.0234C456.466 41.4119 456.466 40.4233 457.077 39.8118C457.688 39.2013 458.677 39.2003 459.289 39.8118Z" fill="#2A96F0"/>
<path d="M744.081 388.494L919.892 564.305L919.892 816.811L1097.51 994.429C1097.81 994.734 1097.81 995.229 1097.51 995.534C1097.2 995.84 1096.71 995.84 1096.4 995.534L918.328 817.459L918.328 564.953L743.433 390.058L497.986 390.058L384.789 276.861C384.484 276.556 384.484 276.06 384.789 275.755C385.094 275.45 385.59 275.45 385.895 275.755L498.633 388.493L744.081 388.494Z" fill="#2A96F0"/>
<path d="M948.549 929.877L1014.94 996.27C1015.25 996.575 1015.25 997.071 1014.94 997.376C1014.64 997.681 1014.14 997.681 1013.84 997.376L947.901 931.441L808.568 931.441L690.525 813.398L690.525 717.192L575.424 602.091L321.226 602.092C320.795 602.092 320.445 601.742 320.445 601.31C320.445 600.879 320.795 600.528 321.226 600.528L576.072 600.527L692.088 716.543L692.088 812.749L809.216 929.877L948.549 929.877Z" fill="#2A96F0"/>
<path d="M777.118 294.798L858.271 375.951L858.27 645.001L1027.67 814.4L1027.67 894.433L1193.31 1060.08C1193.62 1060.38 1193.62 1060.88 1193.31 1061.18C1193.01 1061.49 1192.51 1061.49 1192.21 1061.18L1026.1 895.08L1026.1 815.047L856.706 645.649L856.706 376.6L776.469 296.363L608.414 296.363L453.972 141.922C453.667 141.616 453.667 141.121 453.972 140.816C454.278 140.51 454.773 140.51 455.078 140.816L609.062 294.799L777.118 294.798Z" fill="#2A96F0"/>
<path d="M898.741 1010.19L985.82 1097.27C986.431 1097.88 986.431 1098.87 985.82 1099.48C985.21 1100.09 984.219 1100.09 983.609 1099.48L897.445 1013.32L798.659 1013.32L609.932 824.59L328.353 824.594C327.488 824.594 326.79 823.895 326.79 823.03C326.79 822.165 327.488 821.467 328.353 821.467L550.676 821.465L611.227 821.464L799.954 1010.19L898.741 1010.19Z" fill="#2A96F0"/>
<path d="M952.647 1025.39L1034.15 1106.9L1034.15 1196.65L1142.02 1304.52C1142.32 1304.82 1142.32 1305.32 1142.02 1305.62C1141.71 1305.93 1141.22 1305.93 1140.91 1305.62L1032.59 1197.3L1032.59 1107.54L951.541 1026.5C951.236 1026.19 951.236 1025.7 951.541 1025.39C951.846 1025.09 952.341 1025.09 952.647 1025.39Z" fill="#2A96F0"/>
<path d="M1050.88 1032.2L1110.83 1092.15L1110.83 1209.18L1203.91 1302.26C1204.22 1302.57 1204.22 1303.07 1203.91 1303.37C1203.61 1303.68 1203.11 1303.68 1202.81 1303.37L1109.27 1209.83L1109.27 1092.79L1049.78 1033.31C1049.47 1033 1049.47 1032.51 1049.78 1032.2C1050.08 1031.9 1050.58 1031.9 1050.88 1032.2Z" fill="#2A96F0"/>
<path d="M1153.06 1087.3C1153.2 1087.44 1153.29 1087.64 1153.29 1087.86L1153.29 1190.33L1259.21 1296.25C1259.51 1296.55 1259.51 1297.05 1259.21 1297.35C1258.9 1297.66 1258.41 1297.66 1258.1 1297.35L1151.73 1190.97L1151.73 1087.86C1151.73 1087.43 1152.08 1087.08 1152.51 1087.08C1152.72 1087.07 1152.92 1087.16 1153.06 1087.3Z" fill="#2A96F0"/>
<path d="M560.424 456.227L637.771 533.574C638.382 534.185 638.381 535.175 637.771 535.785C637.16 536.396 636.17 536.397 635.559 535.785L559.128 459.355L428.585 459.356L394.622 425.393C394.011 424.781 394.012 423.792 394.622 423.181C395.233 422.571 396.223 422.57 396.834 423.181L429.881 456.228L560.424 456.227Z" fill="#2A96F0"/>
<path d="M784.632 287.743C788.95 292.061 788.95 299.09 784.632 303.408C780.313 307.726 773.285 307.726 768.967 303.408C764.648 299.09 764.648 292.061 768.967 287.743C773.285 283.425 780.313 283.425 784.632 287.743ZM770.072 302.302C773.781 306.011 779.816 306.012 783.526 302.302C787.235 298.593 787.235 292.558 783.526 288.849C779.817 285.14 773.782 285.139 770.072 288.849C766.362 292.559 766.363 298.593 770.072 302.302Z" fill="#2A96F0"/>
<path d="M781.898 290.476C779.082 287.659 774.515 287.659 771.698 290.476C768.882 293.292 768.882 297.859 771.698 300.676C774.515 303.493 779.082 303.493 781.898 300.676C784.715 297.859 784.715 293.292 781.898 290.476Z" fill="#2A96F0"/>
<path d="M696.94 499.19C701.258 503.508 701.259 510.535 696.94 514.855C692.62 519.174 685.593 519.173 681.275 514.855C676.956 510.537 676.955 503.509 681.275 499.19C685.594 494.87 692.621 494.872 696.94 499.19ZM682.38 513.749C686.091 517.459 692.125 517.458 695.834 513.749C699.543 510.04 699.544 504.006 695.834 500.296C692.125 496.587 686.089 496.587 682.381 500.296C678.672 504.005 678.67 510.039 682.38 513.749Z" fill="#2A96F0"/>
<path d="M694.208 501.922C691.391 499.105 686.824 499.105 684.008 501.922C681.191 504.739 681.191 509.305 684.008 512.122C686.824 514.939 691.391 514.939 694.208 512.122C697.024 509.305 697.024 504.739 694.208 501.922Z" fill="#2A96F0"/>
<path d="M652.42 534.772C656.738 539.09 656.739 546.117 652.42 550.437C648.101 554.756 641.073 554.755 636.755 550.437C632.437 546.118 632.436 539.091 636.755 534.772C641.074 530.452 648.102 530.453 652.42 534.772ZM637.861 549.331C641.57 553.04 647.605 553.04 651.314 549.331C655.023 545.622 655.023 539.586 651.314 535.877C647.605 532.168 641.57 532.168 637.861 535.877C634.152 539.586 634.152 545.622 637.861 549.331Z" fill="#2A96F0"/>
<path d="M649.689 537.503C646.872 534.687 642.305 534.687 639.489 537.503C636.672 540.32 636.672 544.887 639.489 547.703C642.305 550.52 646.872 550.52 649.689 547.703C652.505 544.887 652.505 540.32 649.689 537.503Z" fill="#2A96F0"/>
<path d="M726.213 624.23C729.03 621.413 733.597 621.413 736.414 624.23C739.23 627.046 739.23 631.613 736.414 634.43C733.597 637.246 729.029 637.245 726.213 634.43C723.398 631.614 723.397 627.046 726.213 624.23Z" fill="#2A96F0"/>
<path d="M549.137 274.82C546.32 272.004 541.754 272.004 538.937 274.82C536.12 277.637 536.12 282.204 538.937 285.02C541.754 287.837 546.32 287.837 549.137 285.02C551.954 282.204 551.954 277.637 549.137 274.82Z" fill="#2A96F0"/>
<path d="M700.061 774.645C704.379 778.963 704.38 785.99 700.061 790.31C695.741 794.629 688.714 794.628 684.396 790.31C680.077 785.991 680.076 778.964 684.396 774.645C688.715 770.325 695.742 770.326 700.061 774.645ZM685.501 789.204C689.211 792.914 695.246 792.913 698.955 789.204C702.664 785.495 702.665 779.46 698.955 775.75C695.246 772.041 689.21 772.042 685.501 775.75C681.792 779.459 681.791 785.494 685.501 789.204Z" fill="#2A96F0"/>
<path d="M697.328 777.377C694.511 774.56 689.944 774.56 687.127 777.377C684.311 780.194 684.311 784.761 687.127 787.577C689.944 790.394 694.511 790.394 697.328 787.577C700.144 784.761 700.144 780.194 697.328 777.377Z" fill="#2A96F0"/>
<path d="M934.038 992.211C938.357 996.53 938.357 1003.56 934.038 1007.88C929.718 1012.19 922.692 1012.19 918.373 1007.88C914.053 1003.56 914.053 996.53 918.373 992.211C922.692 987.891 929.718 987.891 934.038 992.211ZM919.478 1006.77C923.187 1010.48 929.223 1010.48 932.932 1006.77C936.641 1003.06 936.641 997.025 932.932 993.316C929.223 989.607 923.187 989.607 919.478 993.316C915.769 997.025 915.769 1003.06 919.478 1006.77Z" fill="#2A96F0"/>
<path d="M931.306 994.943C928.489 992.126 923.922 992.126 921.106 994.943C918.289 997.76 918.289 1002.33 921.106 1005.14C923.922 1007.96 928.489 1007.96 931.306 1005.14C934.123 1002.33 934.122 997.76 931.306 994.943Z" fill="#2A96F0"/>
<path d="M995.919 1098.57C998.952 1101.61 998.952 1106.54 995.919 1109.58C992.886 1112.61 987.95 1112.61 984.916 1109.58C981.883 1106.54 981.883 1101.61 984.916 1098.57C987.95 1095.54 992.886 1095.54 995.919 1098.57ZM986.022 1108.47C988.446 1110.9 992.389 1110.9 994.813 1108.47C997.237 1106.05 997.237 1102.1 994.813 1099.68C992.389 1097.26 988.446 1097.26 986.022 1099.68C983.598 1102.1 983.598 1106.05 986.022 1108.47Z" fill="#2A96F0"/>
<path d="M986.949 1100.61C988.863 1098.69 991.968 1098.69 993.882 1100.61C995.796 1102.52 995.796 1105.63 993.882 1107.54C991.968 1109.46 988.863 1109.46 986.949 1107.54C985.034 1105.63 985.034 1102.52 986.949 1100.61Z" fill="#2A96F0"/>
<path d="M1115.54 1204.01C1118.58 1207.04 1118.58 1211.98 1115.54 1215.01C1112.51 1218.04 1107.57 1218.04 1104.54 1215.01C1101.51 1211.98 1101.51 1207.04 1104.54 1204.01C1107.57 1200.97 1112.51 1200.97 1115.54 1204.01ZM1105.65 1213.9C1108.07 1216.33 1112.01 1216.33 1114.44 1213.9C1116.86 1211.48 1116.86 1207.54 1114.44 1205.11C1112.01 1202.69 1108.07 1202.69 1105.65 1205.11C1103.22 1207.54 1103.22 1211.48 1105.65 1213.9Z" fill="#2A96F0"/>
<path d="M1106.58 1206.04C1108.49 1204.13 1111.6 1204.13 1113.51 1206.04C1115.42 1207.96 1115.42 1211.06 1113.51 1212.98C1111.6 1214.89 1108.49 1214.89 1106.58 1212.98C1104.66 1211.06 1104.66 1207.96 1106.58 1206.04Z" fill="#2A96F0"/>
<path d="M1107.72 994.733C1110.75 997.766 1110.75 1002.7 1107.72 1005.74C1104.69 1008.77 1099.75 1008.77 1096.72 1005.74C1093.68 1002.7 1093.68 997.766 1096.72 994.733C1099.75 991.7 1104.69 991.7 1107.72 994.733ZM1097.82 1004.63C1100.25 1007.05 1104.19 1007.05 1106.61 1004.63C1109.04 1002.21 1109.04 998.263 1106.61 995.839C1104.19 993.415 1100.25 993.415 1097.82 995.839C1095.4 998.263 1095.4 1002.21 1097.82 1004.63Z" fill="#2A96F0"/>
<path d="M1098.75 996.767C1100.67 994.853 1103.77 994.853 1105.68 996.767C1107.6 998.681 1107.6 1001.79 1105.68 1003.7C1103.77 1005.61 1100.67 1005.61 1098.75 1003.7C1096.84 1001.79 1096.84 998.681 1098.75 996.767Z" fill="#2A96F0"/>
<path d="M1203.21 1060.07C1206.25 1063.1 1206.25 1068.04 1203.21 1071.07C1200.18 1074.1 1195.24 1074.1 1192.21 1071.07C1189.18 1068.04 1189.18 1063.1 1192.21 1060.07C1195.24 1057.04 1200.18 1057.04 1203.21 1060.07ZM1193.32 1069.97C1195.74 1072.39 1199.68 1072.39 1202.11 1069.97C1204.53 1067.54 1204.53 1063.6 1202.11 1061.17C1199.68 1058.75 1195.74 1058.75 1193.32 1061.17C1190.89 1063.6 1190.89 1067.54 1193.32 1069.97Z" fill="#2A96F0"/>
<path d="M1194.25 1062.1C1196.16 1060.19 1199.26 1060.19 1201.18 1062.1C1203.09 1064.02 1203.09 1067.12 1201.18 1069.04C1199.26 1070.95 1196.16 1070.95 1194.25 1069.04C1192.33 1067.12 1192.33 1064.02 1194.25 1062.1Z" fill="#2A96F0"/>
<path d="M862.988 924.48C859.578 921.07 854.05 921.07 850.64 924.48C847.231 927.889 847.231 933.418 850.64 936.827C854.05 940.237 859.578 940.237 862.988 936.827C866.398 933.418 866.398 927.889 862.988 924.48Z" fill="#2A96F0"/>
<path d="M395.57 423.322C392.009 426.574 391.759 432.096 395.011 435.657C398.263 439.218 403.785 439.468 407.346 436.217C410.907 432.965 411.157 427.442 407.905 423.881C404.653 420.321 399.131 420.07 395.57 423.322Z" fill="#2A96F0"/>
<path d="M565.316 383.231C568.725 379.822 574.255 379.822 577.664 383.231C581.073 386.64 581.073 392.169 577.664 395.578C574.255 398.988 568.725 398.988 565.316 395.578C561.907 392.169 561.907 386.64 565.316 383.231Z" fill="#2A96F0"/>
<path d="M709.091 291.819C711.324 289.586 714.943 289.587 717.176 291.82C719.409 294.052 719.409 297.673 717.177 299.904C714.943 302.138 711.322 302.137 709.09 299.905C706.858 297.673 706.859 294.051 709.091 291.819Z" fill="#2A96F0"/>
<path d="M853.525 499.033C855.757 496.802 859.377 496.802 861.61 499.034C863.843 501.267 863.843 504.888 861.611 507.119C859.377 509.353 855.756 509.352 853.524 507.12C851.292 504.888 851.292 501.267 853.525 499.033Z" fill="#2A96F0"/>
<path d="M629.18 642.145C625.77 638.735 620.242 638.735 616.833 642.145C613.423 645.555 613.423 651.083 616.833 654.492C620.242 657.902 625.77 657.902 629.18 654.492C632.59 651.083 632.59 645.555 629.18 642.145Z" fill="#2A96F0"/>
<path d="M554.178 577.081C556.582 574.677 560.479 574.677 562.882 577.08C565.286 579.484 565.286 583.38 562.882 585.784C560.478 588.189 556.581 588.189 554.177 585.784C551.774 583.382 551.774 579.485 554.178 577.081Z" fill="#2A96F0"/>
<path d="M546.384 553.772C548.927 551.229 553.053 551.23 555.595 553.772C558.137 556.314 558.139 560.44 555.595 562.984C553.052 565.527 548.926 565.526 546.384 562.984C543.843 560.442 543.84 556.316 546.384 553.772Z" fill="#2A96F0"/>
<path d="M926.893 698.388C922.415 693.91 915.154 693.91 910.675 698.388C906.197 702.866 906.197 710.127 910.675 714.606C915.154 719.084 922.415 719.084 926.893 714.606C931.372 710.127 931.372 702.866 926.893 698.388Z" fill="#2A96F0"/>
<path d="M783.313 412.605C778.835 408.126 771.574 408.126 767.095 412.605C762.617 417.083 762.617 424.344 767.095 428.823C771.574 433.301 778.835 433.301 783.313 428.823C787.792 424.344 787.792 417.083 783.313 412.605Z" fill="#2A96F0"/>
<path d="M876.03 811.178C878.117 809.091 881.501 809.091 883.587 811.178C885.674 813.265 885.674 816.648 883.587 818.735C881.501 820.822 878.117 820.822 876.03 818.735C873.945 816.647 873.945 813.263 876.03 811.178Z" fill="#2A96F0"/>
<path d="M834.991 806.442C839.616 811.067 839.617 818.592 834.992 823.217C830.368 827.841 822.844 827.841 818.218 823.215C813.594 818.591 813.594 811.067 818.218 806.442C822.842 801.817 830.367 801.818 834.991 806.442ZM819.323 822.111C823.338 826.126 829.871 826.126 833.886 822.112C837.901 818.097 837.9 811.565 833.884 807.549C829.869 803.534 823.337 803.535 819.323 807.549C815.308 811.562 815.308 818.095 819.323 822.111Z" fill="#2A96F0"/>
<path d="M821.188 809.414C824.178 806.424 829.027 806.425 832.017 809.415C835.007 812.406 835.006 817.255 832.017 820.244C829.027 823.234 824.178 823.233 821.189 820.244C818.2 817.255 818.199 812.403 821.188 809.414Z" fill="#2A96F0"/>
<path d="M1020.57 990.644C1017.16 987.235 1011.63 987.235 1008.22 990.644C1004.81 994.054 1004.81 999.582 1008.22 1002.99C1011.63 1006.4 1017.16 1006.4 1020.57 1002.99C1023.98 999.582 1023.98 994.054 1020.57 990.644Z" fill="#2A96F0"/>
<path d="M1056.51 1026.58C1053.1 1023.17 1047.57 1023.17 1044.16 1026.58C1040.75 1029.99 1040.75 1035.52 1044.16 1038.93C1047.57 1042.34 1053.1 1042.34 1056.51 1038.93C1059.92 1035.52 1059.92 1029.99 1056.51 1026.58Z" fill="#2A96F0"/>
<path d="M1158.68 1081.68C1155.27 1078.27 1149.75 1078.27 1146.34 1081.68C1142.93 1085.09 1142.93 1090.62 1146.34 1094.03C1149.75 1097.44 1155.27 1097.44 1158.68 1094.03C1162.09 1090.62 1162.09 1085.09 1158.68 1081.68Z" fill="#2A96F0"/>
<path d="M1147.12 1185.26C1150.53 1181.85 1156.06 1181.85 1159.47 1185.26C1162.88 1188.67 1162.88 1194.2 1159.47 1197.61C1156.06 1201.02 1150.53 1201.02 1147.12 1197.61C1143.71 1194.2 1143.71 1188.67 1147.12 1185.26Z" fill="#2A96F0"/>
<path d="M900.038 928.161C898.715 926.837 896.569 926.837 895.246 928.161C893.922 929.484 893.922 931.63 895.246 932.953C896.569 934.277 898.715 934.277 900.038 932.953C901.362 931.63 901.362 929.484 900.038 928.161Z" fill="#2A96F0"/>
<path d="M830.92 896.28C828.579 893.939 824.783 893.939 822.443 896.28C820.102 898.621 820.102 902.417 822.443 904.758C824.783 907.098 828.579 907.098 830.92 904.757C833.261 902.417 833.261 898.621 830.92 896.28Z" fill="#2A96F0"/>
<path d="M953.113 1018.47C950.772 1016.13 946.976 1016.13 944.635 1018.47C942.295 1020.81 942.295 1024.61 944.635 1026.95C946.976 1029.29 950.772 1029.29 953.113 1026.95C955.454 1024.61 955.454 1020.81 953.113 1018.47Z" fill="#2A96F0"/>
<path d="M1075.77 1100.21C1073.43 1097.87 1069.63 1097.87 1067.29 1100.21C1064.95 1102.55 1064.95 1106.34 1067.29 1108.69C1069.63 1111.03 1073.43 1111.03 1075.77 1108.69C1078.11 1106.34 1078.11 1102.55 1075.77 1100.21Z" fill="#2A96F0"/>
<path d="M541.927 704.425L889.154 1051.65C889.459 1051.96 889.459 1052.45 889.154 1052.76C888.849 1053.06 888.353 1053.06 888.048 1052.76L540.821 705.531C540.516 705.226 540.516 704.731 540.821 704.425C541.127 704.12 541.622 704.12 541.927 704.425Z" fill="#2A96F0"/>
<path d="M895.973 1051.1C893.632 1048.76 889.837 1048.76 887.496 1051.1C885.155 1053.44 885.155 1057.24 887.496 1059.58C889.837 1061.92 893.632 1061.92 895.973 1059.58C898.314 1057.24 898.314 1053.44 895.973 1051.1Z" fill="#2A96F0"/>
<path d="M545.614 700.739C543.273 698.397 539.476 698.397 537.135 700.739C534.793 703.08 534.793 706.877 537.135 709.218C539.476 711.56 543.273 711.56 545.614 709.218C547.956 706.877 547.956 703.08 545.614 700.739Z" fill="#2A96F0"/>
<path d="M556.971 581.185C557.112 581.327 557.2 581.523 557.201 581.738C557.201 582.17 556.85 582.52 556.419 582.52L298.79 582.52C298.359 582.52 298.008 582.17 298.008 581.738C298.008 581.307 298.359 580.957 298.79 580.957L556.418 580.958C556.633 580.956 556.829 581.044 556.971 581.185Z" fill="#2A96F0"/>
<path d="M548.124 557.998C548.266 558.14 548.353 558.335 548.353 558.55C548.353 558.981 548.003 559.332 547.571 559.332L289.943 559.334C289.511 559.334 289.161 558.983 289.161 558.552C289.161 558.121 289.511 557.77 289.943 557.77L547.57 557.769C547.787 557.769 547.983 557.857 548.124 557.998Z" fill="#2A96F0"/>
<path d="M546.563 281.353L732.091 466.88L732.089 629.337C732.089 629.768 731.739 630.118 731.308 630.118C730.876 630.118 730.526 629.768 730.526 629.337L730.527 467.528L545.457 282.459C545.152 282.153 545.152 281.658 545.457 281.353C545.763 281.048 546.257 281.046 546.563 281.353Z" fill="#2A96F0"/>
</svg>
