<svg width="20" height="24" viewBox="0 0 20 24" fill="none" xmlns="http://www.w3.org/2000/svg">
<path d="M10.25 16.8V1C10.25 0.447715 10.6977 0 11.25 0H14.125C14.6773 0 15.1267 0.458252 15.3221 0.974795C15.6138 1.74571 16.215 2.56835 17.0293 3.26719C17.6659 3.81355 18.4522 4.21824 19.0568 4.47417C19.5654 4.68946 20 5.24772 20 5.8V8.6C20 9.15228 19.5488 9.59395 19.0121 9.46361C18.2379 9.27558 17.3906 8.92165 16.6852 8.58471C15.9837 8.24964 15.125 8.74699 15.125 9.52436V16.8C15.125 20.7479 11.8221 24 7.8125 24C3.80289 24 0.5 20.7479 0.5 16.8C0.5 13.1849 3.26952 10.1532 6.81515 9.66779C7.36233 9.59288 7.8125 10.0477 7.8125 10.6V13.4C7.8125 13.9523 7.34749 14.3789 6.83707 14.5899C5.96527 14.9501 5.375 15.7882 5.375 16.8C5.375 18.1561 6.43524 19.2 7.8125 19.2C9.18976 19.2 10.25 18.1561 10.25 16.8Z" fill="#0061E0"/>
<path d="M10.25 16.8V1C10.25 0.447715 10.6977 0 11.25 0H14.125C14.6773 0 15.1267 0.458252 15.3221 0.974795C15.6138 1.74571 16.215 2.56835 17.0293 3.26719C17.6659 3.81355 18.4522 4.21824 19.0568 4.47417C19.5654 4.68946 20 5.24772 20 5.8V8.6C20 9.15228 19.5488 9.59395 19.0121 9.46361C18.2379 9.27558 17.3906 8.92165 16.6852 8.58471C15.9837 8.24964 15.125 8.74699 15.125 9.52436V16.8C15.125 20.7479 11.8221 24 7.8125 24C3.80289 24 0.5 20.7479 0.5 16.8C0.5 13.1849 3.26952 10.1532 6.81515 9.66779C7.36233 9.59288 7.8125 10.0477 7.8125 10.6V13.4C7.8125 13.9523 7.34749 14.3789 6.83707 14.5899C5.96527 14.9501 5.375 15.7882 5.375 16.8C5.375 18.1561 6.43524 19.2 7.8125 19.2C9.18976 19.2 10.25 18.1561 10.25 16.8Z" fill="black" fill-opacity="0.2"/>
</svg>
