<svg width="243" height="123" viewBox="0 0 243 123" fill="none" xmlns="http://www.w3.org/2000/svg">
<path d="M215.029 112.344L232.971 94.4025C237.471 89.9016 240 83.7971 240 77.4319L240 45.8142C240 39.449 237.471 33.3445 232.971 28.8436L215.029 10.9025C210.529 6.40161 204.424 3.87305 198.059 3.87305L18.3137 3.87307C5.28208 3.87307 -1.2442 19.6289 7.97057 28.8436C12.4714 33.3445 15 39.449 15 45.8142L15 77.4319C15 83.7971 12.4714 89.9016 7.97058 94.4025C-1.24419 103.617 5.28209 119.373 18.3137 119.373L198.059 119.373C204.424 119.373 210.529 116.844 215.029 112.344Z" fill="url(#paint0_linear_246_13835)" stroke="#004563" stroke-width="6"/>
<defs>
<linearGradient id="paint0_linear_246_13835" x1="111.341" y1="3.87402" x2="111.341" y2="118.874" gradientUnits="userSpaceOnUse">
<stop stop-color="#307693"/>
<stop offset="1" stop-color="#00567A"/>
</linearGradient>
</defs>
</svg>
