<svg width="375" height="320" viewBox="0 0 375 320" fill="none" xmlns="http://www.w3.org/2000/svg">
<path d="M-174.928 101.224L-20.9135 101.224L18.9286 141.065L107.161 141.065L149.328 183.233L208.358 183.233C208.553 183.233 208.712 183.391 208.712 183.587C208.712 183.783 208.553 183.941 208.358 183.941L149.035 183.941L106.868 141.774L18.6352 141.774L-21.2069 101.933L-174.928 101.933C-175.123 101.933 -175.282 101.774 -175.282 101.578C-175.282 101.383 -175.123 101.224 -174.928 101.224Z" fill="#2A96F0"/>
<path d="M138.64 138.791L314.071 138.791C314.267 138.791 314.425 138.949 314.425 139.145C314.425 139.34 314.267 139.499 314.071 139.499L138.934 139.499L88.8209 189.611L24.2333 189.611L-13.02 152.358L-51.9408 152.358L-147.712 248.128C-147.85 248.266 -148.074 248.266 -148.213 248.128C-148.351 247.99 -148.351 247.765 -148.213 247.627L-52.2341 151.649L-12.7266 151.649L24.5267 188.902L88.5275 188.902L138.64 138.791Z" fill="#2A96F0"/>
<path d="M-244.291 25.5057L-40.9512 25.5057L60.5339 126.991L127.608 126.991L170.382 169.765L293.047 169.765C293.438 169.765 293.755 170.082 293.755 170.473C293.755 170.865 293.438 171.182 293.047 171.182L169.795 171.182L127.022 128.408L59.9471 128.408L-41.538 26.923L-244.291 26.9231C-244.683 26.9231 -245 26.6063 -245 26.2144C-245 25.8232 -244.683 25.5057 -244.291 25.5057Z" fill="#2A96F0"/>
<path d="M-41.3011 45.9788L71.3721 45.9788L152.285 126.892L266.116 126.892C266.312 126.892 266.471 127.051 266.471 127.246C266.471 127.442 266.312 127.601 266.116 127.601L151.992 127.601L71.0787 46.6875L-41.0077 46.6875L-119.659 125.338L-192.204 125.338C-192.4 125.338 -192.558 125.18 -192.558 124.984C-192.558 124.789 -192.4 124.63 -192.204 124.63L-119.953 124.63L-41.3011 45.9788Z" fill="#2A96F0"/>
<path d="M197.699 153.939L240.249 153.939C240.445 153.939 240.604 154.098 240.604 154.294C240.604 154.489 240.445 154.648 240.249 154.648L197.993 154.648L153.345 199.296L77.6938 199.296L46.8656 168.468L-26.9003 168.468L-108.355 249.923C-108.493 250.061 -108.718 250.061 -108.856 249.923C-108.994 249.785 -108.994 249.56 -108.856 249.422L-27.1937 167.759L47.1583 167.759L77.9865 198.587L153.051 198.587L197.699 153.939Z" fill="#2A96F0"/>
<path d="M-60.7384 5.36822L-8.72941 5.36822L77.4847 91.583L186.049 91.583L211.694 117.229L317.851 117.229C318.047 117.229 318.206 117.387 318.206 117.583C318.206 117.779 318.047 117.937 317.851 117.937L211.4 117.937L185.755 92.2917L77.1913 92.2917L-9.02281 6.07763L-60.445 6.07763L-114.297 59.9292L-213.275 59.9292C-213.47 59.9292 -213.629 59.7705 -213.629 59.5749C-213.629 59.3793 -213.47 59.2205 -213.275 59.2205L-114.59 59.2205L-60.7384 5.36822Z" fill="#2A96F0"/>
<path d="M207.473 195.635L263.281 195.635C263.672 195.635 263.99 195.952 263.99 196.344C263.99 196.735 263.672 197.052 263.281 197.052L208.06 197.052L176.406 228.708L55.455 228.708L-34.773 318.938C-35.0501 319.215 -35.498 319.215 -35.7751 318.938C-36.0522 318.661 -36.0522 318.213 -35.7751 317.936L35.4653 246.694L54.8682 227.291L175.819 227.291L207.473 195.635Z" fill="#2A96F0"/>
<path d="M229.618 183.233L281.854 183.233L310.615 211.994L379.743 211.994C379.939 211.994 380.097 212.153 380.097 212.348C380.097 212.544 379.939 212.703 379.743 212.703L310.321 212.703L281.561 183.942L229.618 183.942C229.423 183.942 229.264 183.783 229.264 183.588C229.264 183.392 229.423 183.233 229.618 183.233Z" fill="#2A96F0"/>
<path d="M263.28 153.936L301.697 153.936L339.199 191.438L398.856 191.438C399.051 191.438 399.21 191.597 399.21 191.793C399.21 191.988 399.051 192.147 398.856 192.147L338.906 192.147L301.404 154.645L263.28 154.645C263.085 154.645 262.926 154.486 262.926 154.291C262.926 154.095 263.085 153.936 263.28 153.936Z" fill="#2A96F0"/>
<path d="M313.679 138.851C313.769 138.851 313.86 138.886 313.929 138.955L346.765 171.79L414.646 171.79C414.841 171.79 415 171.949 415 172.145C415 172.34 414.841 172.499 414.646 172.499L346.471 172.499L313.428 139.456C313.29 139.318 313.29 139.093 313.428 138.955C313.497 138.886 313.588 138.851 313.679 138.851Z" fill="#2A96F0"/>
<path d="M28.5127 127.243C28.5127 125.438 29.9761 123.975 31.7812 123.975C33.5862 123.975 35.0497 125.438 35.0497 127.243C35.0497 129.048 33.5855 130.512 31.7812 130.512C29.9768 130.512 28.5127 129.048 28.5127 127.243Z" fill="#2A96F0"/>
<path d="M68.3309 183.823C71.0983 183.823 73.3506 186.074 73.3506 188.843C73.3506 191.611 71.0983 193.862 68.3309 193.862C65.5634 193.862 63.3112 191.611 63.3112 188.843C63.3112 186.074 65.5634 183.823 68.3309 183.823ZM68.3309 193.154C70.7085 193.154 72.6419 191.22 72.6419 188.843C72.6419 186.466 70.7085 184.532 68.3309 184.532C65.9539 184.532 64.0199 186.466 64.0199 188.843C64.0199 191.22 65.9532 193.154 68.3309 193.154Z" fill="#2A96F0"/>
<path d="M68.3308 185.574C66.5256 185.574 65.0623 187.038 65.0623 188.843C65.0623 190.648 66.5256 192.111 68.3308 192.111C70.1359 192.111 71.5993 190.648 71.5993 188.843C71.5993 187.038 70.1359 185.574 68.3308 185.574Z" fill="#2A96F0"/>
<path d="M213.023 178.564C215.791 178.564 218.043 180.815 218.043 183.584C218.043 186.352 215.791 188.603 213.023 188.603C210.255 188.603 208.003 186.352 208.003 183.584C208.003 180.815 210.255 178.564 213.023 178.564ZM213.023 187.895C215.4 187.895 217.334 185.961 217.334 183.584C217.334 181.207 215.4 179.273 213.023 179.273C210.646 179.273 208.712 181.207 208.712 183.584C208.712 185.961 210.646 187.895 213.023 187.895Z" fill="#2A96F0"/>
<path d="M213.023 180.315C211.218 180.315 209.755 181.779 209.755 183.584C209.755 185.389 211.218 186.852 213.023 186.852C214.828 186.852 216.292 185.389 216.292 183.584C216.292 181.779 214.828 180.315 213.023 180.315Z" fill="#2A96F0"/>
<path d="M266.936 192.818C268.879 192.818 270.461 194.4 270.461 196.344C270.461 198.288 268.879 199.869 266.936 199.869C264.992 199.869 263.41 198.288 263.41 196.344C263.41 194.4 264.992 192.818 266.936 192.818ZM266.936 199.161C268.489 199.161 269.753 197.897 269.753 196.344C269.753 194.79 268.489 193.527 266.936 193.527C265.382 193.527 264.118 194.79 264.118 196.344C264.118 197.897 265.382 199.161 266.936 199.161Z" fill="#2A96F0"/>
<path d="M264.713 196.344C264.713 195.117 265.708 194.122 266.935 194.122C268.161 194.122 269.156 195.117 269.156 196.344C269.156 197.57 268.161 198.565 266.935 198.565C265.708 198.565 264.713 197.57 264.713 196.344Z" fill="#2A96F0"/>
<path d="M339.053 188.27C340.997 188.27 342.579 189.852 342.579 191.796C342.579 193.74 340.997 195.322 339.053 195.322C337.109 195.322 335.527 193.74 335.527 191.796C335.527 189.852 337.109 188.27 339.053 188.27ZM339.053 194.613C340.606 194.613 341.87 193.349 341.87 191.796C341.87 190.243 340.606 188.979 339.053 188.979C337.499 188.979 336.236 190.243 336.236 191.796C336.236 193.349 337.499 194.613 339.053 194.613Z" fill="#2A96F0"/>
<path d="M336.831 191.796C336.831 190.569 337.826 189.574 339.053 189.574C340.28 189.574 341.275 190.569 341.275 191.796C341.275 193.023 340.28 194.018 339.053 194.018C337.826 194.018 336.831 193.023 336.831 191.796Z" fill="#2A96F0"/>
<path d="M269.486 123.717C271.43 123.717 273.012 125.299 273.012 127.243C273.012 129.187 271.43 130.769 269.486 130.769C267.542 130.769 265.96 129.187 265.96 127.243C265.96 125.299 267.542 123.717 269.486 123.717ZM269.486 130.06C271.04 130.06 272.303 128.797 272.303 127.243C272.303 125.69 271.04 124.426 269.486 124.426C267.933 124.426 266.669 125.69 266.669 127.243C266.669 128.797 267.933 130.06 269.486 130.06Z" fill="#2A96F0"/>
<path d="M267.264 127.243C267.264 126.016 268.259 125.021 269.486 125.021C270.713 125.021 271.708 126.016 271.708 127.243C271.708 128.47 270.713 129.465 269.486 129.465C268.259 129.465 267.264 128.47 267.264 127.243Z" fill="#2A96F0"/>
<path d="M321.022 114.054C322.966 114.054 324.548 115.635 324.548 117.579C324.548 119.523 322.966 121.105 321.022 121.105C319.078 121.105 317.497 119.523 317.497 117.579C317.497 115.635 319.078 114.054 321.022 114.054ZM321.022 120.396C322.576 120.396 323.839 119.133 323.839 117.579C323.839 116.026 322.576 114.762 321.022 114.762C319.469 114.762 318.205 116.026 318.205 117.579C318.205 119.133 319.469 120.396 321.022 120.396Z" fill="#2A96F0"/>
<path d="M318.8 117.58C318.8 116.352 319.795 115.358 321.022 115.358C322.249 115.358 323.244 116.353 323.244 117.58C323.244 118.806 322.249 119.801 321.022 119.801C319.795 119.801 318.8 118.807 318.8 117.58Z" fill="#2A96F0"/>
<path d="M168.552 179.627C166.367 179.627 164.596 181.399 164.596 183.584C164.596 185.769 166.367 187.541 168.552 187.541C170.738 187.541 172.509 185.769 172.509 183.584C172.509 181.399 170.738 179.627 168.552 179.627Z" fill="#2A96F0"/>
<path d="M29.1903 46.3298C29.1903 44.8997 30.3504 43.7395 31.7813 43.7395C33.2121 43.7395 34.3723 44.8997 34.3723 46.3298C34.3723 47.7614 33.2114 48.9215 31.7813 48.9215C30.3504 48.9215 29.1903 47.7614 29.1903 46.3298Z" fill="#2A96F0"/>
<path d="M3.1599 164.077C0.974705 164.077 -0.796706 165.849 -0.796706 168.034C-0.796706 170.219 0.974706 171.991 3.1599 171.991C5.34509 171.991 7.11655 170.219 7.11655 168.034C7.11655 165.849 5.34509 164.077 3.1599 164.077Z" fill="#2A96F0"/>
<path d="M116.581 86.701C113.711 86.701 111.385 89.0277 111.385 91.8979C111.385 94.768 113.711 97.0947 116.581 97.0947C119.452 97.0947 121.778 94.768 121.778 91.8979C121.778 89.0277 119.452 86.701 116.581 86.701Z" fill="#2A96F0"/>
<path d="M136.425 139.142C136.425 137.805 137.509 136.72 138.847 136.72C140.184 136.72 141.268 137.805 141.268 139.142C141.268 140.479 140.184 141.563 138.847 141.563C137.509 141.563 136.425 140.478 136.425 139.142Z" fill="#2A96F0"/>
<path d="M121.757 150.775C124.721 150.775 127.133 153.186 127.133 156.15C127.133 159.113 124.722 161.524 121.757 161.524C118.794 161.524 116.383 159.113 116.383 156.15C116.382 153.186 118.794 150.775 121.757 150.775ZM121.757 160.816C124.331 160.816 126.424 158.723 126.424 156.15C126.424 153.577 124.331 151.484 121.757 151.484C119.184 151.484 117.091 153.578 117.091 156.15C117.091 158.723 119.184 160.816 121.757 160.816Z" fill="#2A96F0"/>
<path d="M118.287 156.15C118.287 154.234 119.841 152.68 121.757 152.68C123.674 152.68 125.227 154.235 125.227 156.15C125.227 158.067 123.673 159.62 121.757 159.62C119.842 159.62 118.287 158.066 118.287 156.15Z" fill="#2A96F0"/>
<path d="M240.249 150.334C238.064 150.334 236.292 152.106 236.292 154.291C236.292 156.476 238.064 158.247 240.249 158.247C242.434 158.247 244.206 156.476 244.206 154.291C244.206 152.106 242.434 150.334 240.249 150.334Z" fill="#2A96F0"/>
<path d="M263.281 150.334C261.095 150.334 259.324 152.106 259.324 154.291C259.324 156.476 261.095 158.247 263.281 158.247C265.466 158.247 267.237 156.476 267.237 154.291C267.237 152.106 265.466 150.334 263.281 150.334Z" fill="#2A96F0"/>
<path d="M313.679 135.249C311.494 135.249 309.722 137.021 309.722 139.206C309.722 141.391 311.494 143.163 313.679 143.163C315.864 143.163 317.635 141.391 317.635 139.206C317.635 137.021 315.864 135.249 313.679 135.249Z" fill="#2A96F0"/>
<path d="M343.164 172.145C343.164 169.96 344.936 168.189 347.121 168.189C349.306 168.189 351.078 169.96 351.078 172.145C351.078 174.33 349.306 176.102 347.121 176.102C344.936 176.102 343.164 174.33 343.164 172.145Z" fill="#2A96F0"/>
<path d="M181.604 168.935C180.756 168.935 180.069 169.622 180.069 170.47C180.069 171.319 180.756 172.006 181.604 172.006C182.452 172.006 183.14 171.319 183.14 170.47C183.14 169.622 182.452 168.935 181.604 168.935Z" fill="#2A96F0"/>
<path d="M149.24 180.867C147.74 180.867 146.524 182.084 146.524 183.584C146.524 185.084 147.74 186.3 149.24 186.3C150.741 186.3 151.957 185.084 151.957 183.584C151.957 182.084 150.741 180.867 149.24 180.867Z" fill="#2A96F0"/>
<path d="M227.551 180.867C226.051 180.867 224.835 182.084 224.835 183.584C224.835 185.084 226.051 186.3 227.551 186.3C229.051 186.3 230.268 185.084 230.268 183.584C230.268 182.084 229.051 180.867 227.551 180.867Z" fill="#2A96F0"/>
<path d="M293.047 167.754C291.546 167.754 290.33 168.97 290.33 170.47C290.33 171.971 291.546 173.187 293.047 173.187C294.547 173.187 295.763 171.971 295.763 170.47C295.763 168.97 294.547 167.754 293.047 167.754Z" fill="#2A96F0"/>
<path d="M-4.84215 211.994L217.688 211.994C217.884 211.994 218.042 212.153 218.042 212.348C218.042 212.544 217.884 212.703 217.688 212.703L-4.84215 212.703C-5.03775 212.703 -5.1965 212.544 -5.1965 212.348C-5.1965 212.153 -5.03775 211.994 -4.84215 211.994Z" fill="#2A96F0"/>
<path d="M219.696 209.632C218.196 209.632 216.98 210.848 216.98 212.348C216.98 213.848 218.196 215.065 219.696 215.065C221.197 215.065 222.413 213.848 222.413 212.348C222.413 210.848 221.197 209.632 219.696 209.632Z" fill="#2A96F0"/>
<path d="M-138.926 74.9391L-20.0252 74.9391L32.032 126.997C32.1702 127.135 32.1702 127.36 32.032 127.498C31.8938 127.636 31.6691 127.636 31.5309 127.498L-20.3186 75.6478L-138.926 75.6478C-139.121 75.6478 -139.28 75.489 -139.28 75.2934C-139.28 75.0978 -139.122 74.9391 -138.926 74.9391Z" fill="#2A96F0"/>
</svg>
