<svg width="375" height="193" viewBox="0 0 375 193" fill="none" xmlns="http://www.w3.org/2000/svg">
<path d="M407.355 112.12H284.297L252.463 80.287H181.965L148.273 46.5951H101.108C100.952 46.5951 100.825 46.4682 100.825 46.3119C100.825 46.1557 100.952 46.0288 101.108 46.0288H148.507L182.199 79.7207H252.698L284.532 111.554H407.355C407.512 111.554 407.638 111.681 407.638 111.837C407.638 111.994 407.512 112.12 407.355 112.12Z" fill="#2A96F0"/>
<path d="M156.813 82.1048L16.6429 82.1048C16.4866 82.1048 16.3598 81.978 16.3598 81.8217C16.3598 81.6654 16.4866 81.5386 16.6429 81.5386L156.578 81.5386L196.619 41.499L248.225 41.499L277.99 71.2645H309.088L385.61 -5.25633C385.72 -5.36675 385.899 -5.36675 386.01 -5.25633C386.12 -5.14591 386.12 -4.96641 386.01 -4.85599L309.323 71.8308H277.756L247.99 42.0652L196.853 42.0652L156.813 82.1048Z" fill="#2A96F0"/>
<path d="M462.777 172.62L300.307 172.62L219.22 91.5328H165.627L131.451 57.3562L33.4413 57.3562C33.1287 57.3562 32.8751 57.1025 32.8751 56.7899C32.8751 56.4773 33.1287 56.2237 33.4413 56.2237L131.92 56.2237L166.096 90.4003H219.689L300.776 171.487L462.777 171.487C463.09 171.487 463.343 171.74 463.343 172.054C463.343 172.366 463.09 172.62 462.777 172.62Z" fill="#2A96F0"/>
<path d="M300.587 156.262H210.56L145.91 91.6119H54.9588C54.8025 91.6119 54.6756 91.485 54.6756 91.3287C54.6756 91.1725 54.8025 91.0456 54.9588 91.0456H146.145L210.795 155.696H300.353L363.195 92.8531H421.159C421.315 92.8531 421.442 92.9799 421.442 93.1362C421.442 93.2925 421.315 93.4193 421.159 93.4193H363.43L300.587 156.262Z" fill="#2A96F0"/>
<path d="M109.625 70.0005H75.6269C75.4706 70.0005 75.3438 69.8737 75.3438 69.7174C75.3438 69.5611 75.4706 69.4343 75.6269 69.4343H109.39L145.064 33.7605H205.509L230.141 58.3924H289.081L354.163 -6.69075C354.274 -6.80116 354.453 -6.80116 354.564 -6.69075C354.674 -6.58033 354.674 -6.40083 354.564 -6.29041L289.315 58.9586H229.907L205.276 34.3267H145.298L109.625 70.0005Z" fill="#2A96F0"/>
<path d="M316.117 188.71H274.562L205.677 119.824L118.933 119.824L98.4423 99.3327H13.6225C13.4662 99.3327 13.3394 99.2059 13.3394 99.0496C13.3394 98.8933 13.4662 98.7665 13.6225 98.7665H98.6773L119.168 119.257L205.911 119.257L274.796 188.143H315.883L358.911 145.115H437.995C438.151 145.115 438.278 145.242 438.278 145.398C438.278 145.555 438.151 145.681 437.995 145.681H359.145L316.117 188.71Z" fill="#2A96F0"/>
<path d="M101.815 36.6857H57.2244C56.9118 36.6857 56.6581 36.432 56.6581 36.1195C56.6581 35.8069 56.9118 35.5532 57.2244 35.5532H101.346L126.638 10.2605L223.278 10.2605L295.371 -61.8338C295.592 -62.0552 295.95 -62.0552 296.172 -61.8338C296.393 -61.6124 296.393 -61.2546 296.172 -61.0332L239.25 -4.1107L223.747 11.3924L127.107 11.3924L101.815 36.6857Z" fill="#2A96F0"/>
<path d="M84.1211 46.5949L42.3845 46.5949L19.4043 23.6147L-35.8295 23.6147C-35.9857 23.6147 -36.1126 23.4879 -36.1126 23.3316C-36.1126 23.1753 -35.9857 23.0485 -35.8295 23.0485L19.6387 23.0485L42.6189 46.0286L84.1211 46.0286C84.2774 46.0286 84.4042 46.1555 84.4042 46.3117C84.4042 46.468 84.2774 46.5949 84.1211 46.5949Z" fill="#2A96F0"/>
<path d="M57.2248 70.0032H26.5295L-3.43479 40.0389H-51.1005C-51.2568 40.0389 -51.3836 39.912 -51.3836 39.7558C-51.3836 39.5995 -51.2568 39.4726 -51.1005 39.4726L-3.20036 39.4726L26.7639 69.4369H57.2248C57.3811 69.4369 57.5079 69.5638 57.5079 69.72C57.5079 69.8763 57.3811 70.0032 57.2248 70.0032Z" fill="#2A96F0"/>
<path d="M16.9564 82.0563C16.8839 82.0563 16.8114 82.0286 16.7559 81.9736L-9.47957 55.7375H-63.7169C-63.8732 55.7375 -64 55.6107 -64 55.4544C-64 55.2981 -63.8732 55.1713 -63.7169 55.1713L-9.24514 55.1713L17.1563 81.5727C17.2667 81.6831 17.2667 81.8626 17.1563 81.9731C17.1014 82.0286 17.0289 82.0563 16.9564 82.0563Z" fill="#2A96F0"/>
<path d="M330.267 91.8976H290.661C290.348 91.8976 290.095 91.6439 290.095 91.3313C290.095 91.0187 290.348 90.7651 290.661 90.7651H329.798L363.221 57.3415H380.613C380.926 57.3415 381.179 57.5952 381.179 57.9078C381.179 58.2204 380.926 58.474 380.613 58.474H363.69L330.267 91.8976Z" fill="#2A96F0"/>
<path d="M316 192.439C313.789 192.439 311.99 190.64 311.99 188.429C311.99 186.218 313.789 184.418 316 184.418C318.212 184.418 320.011 186.218 320.011 188.429C320.011 190.64 318.212 192.439 316 192.439ZM316 184.984C314.101 184.984 312.556 186.529 312.556 188.429C312.556 190.328 314.101 191.873 316 191.873C317.9 191.873 319.445 190.329 319.445 188.429C319.445 186.529 317.9 184.984 316 184.984Z" fill="#2A96F0"/>
<path d="M316 191.04C317.443 191.04 318.612 189.871 318.612 188.429C318.612 186.986 317.443 185.817 316 185.817C314.558 185.817 313.389 186.986 313.389 188.429C313.389 189.871 314.558 191.04 316 191.04Z" fill="#2A96F0"/>
<path d="M284.315 115.85C282.104 115.85 280.304 114.051 280.304 111.839C280.304 109.628 282.104 107.829 284.315 107.829C286.526 107.829 288.326 109.628 288.326 111.839C288.326 114.051 286.526 115.85 284.315 115.85ZM284.315 108.395C282.415 108.395 280.87 109.94 280.87 111.839C280.87 113.739 282.415 115.284 284.315 115.284C286.214 115.284 287.759 113.739 287.759 111.839C287.759 109.94 286.215 108.395 284.315 108.395Z" fill="#2A96F0"/>
<path d="M284.315 114.451C285.757 114.451 286.927 113.282 286.927 111.84C286.927 110.397 285.757 109.228 284.315 109.228C282.873 109.228 281.703 110.397 281.703 111.84C281.703 113.282 282.873 114.451 284.315 114.451Z" fill="#2A96F0"/>
<path d="M286.603 95.3418C284.392 95.3418 282.592 93.5428 282.592 91.331C282.592 89.1192 284.392 87.3203 286.603 87.3203C288.814 87.3203 290.614 89.1192 290.614 91.331C290.614 93.5428 288.814 95.3418 286.603 95.3418ZM286.603 87.8865C284.704 87.8865 283.159 89.4318 283.159 91.331C283.159 93.2302 284.704 94.7755 286.603 94.7755C288.502 94.7755 290.048 93.2302 290.048 91.331C290.048 89.4318 288.502 87.8865 286.603 87.8865Z" fill="#2A96F0"/>
<path d="M286.603 93.9427C288.045 93.9427 289.215 92.7735 289.215 91.3311C289.215 89.8888 288.045 88.7196 286.603 88.7196C285.161 88.7196 283.992 89.8888 283.992 91.3311C283.992 92.7735 285.161 93.9427 286.603 93.9427Z" fill="#2A96F0"/>
<path d="M244.805 91.3311C244.805 92.7734 243.636 93.9427 242.194 93.9427C240.752 93.9427 239.582 92.7734 239.582 91.3311C239.582 89.8889 240.752 88.7196 242.194 88.7196C243.635 88.7196 244.805 89.8889 244.805 91.3311Z" fill="#2A96F0"/>
<path d="M212.991 46.1236C210.779 46.1236 208.98 44.3247 208.98 42.1129C208.98 39.9011 210.779 38.1021 212.991 38.1021C215.202 38.1021 217.001 39.9011 217.001 42.1129C217.001 44.3247 215.202 46.1236 212.991 46.1236ZM212.991 38.6684C211.091 38.6684 209.546 40.2137 209.546 42.1129C209.546 44.0121 211.091 45.5574 212.991 45.5574C214.89 45.5574 216.435 44.0121 216.435 42.1129C216.435 40.2137 214.89 38.6684 212.991 38.6684Z" fill="#2A96F0"/>
<path d="M212.991 44.7243C214.433 44.7243 215.602 43.555 215.602 42.1127C215.602 40.6704 214.433 39.5012 212.991 39.5012C211.548 39.5012 210.379 40.6704 210.379 42.1127C210.379 43.555 211.548 44.7243 212.991 44.7243Z" fill="#2A96F0"/>
<path d="M97.3808 50.3255C95.169 50.3255 93.37 48.5265 93.37 46.3147C93.37 44.1029 95.169 42.304 97.3808 42.304C99.5925 42.304 101.392 44.1029 101.392 46.3147C101.392 48.5265 99.5925 50.3255 97.3808 50.3255ZM97.3808 42.8702C95.4815 42.8702 93.9362 44.4155 93.9362 46.3147C93.9362 48.2139 95.4815 49.7592 97.3808 49.7592C99.28 49.7592 100.825 48.2139 100.825 46.3147C100.825 44.4155 99.28 42.8702 97.3808 42.8702Z" fill="#2A96F0"/>
<path d="M97.3806 48.9263C98.8229 48.9263 99.9921 47.757 99.9921 46.3147C99.9921 44.8724 98.8229 43.7032 97.3806 43.7032C95.9383 43.7032 94.769 44.8724 94.769 46.3147C94.769 47.757 95.9383 48.9263 97.3806 48.9263Z" fill="#2A96F0"/>
<path d="M54.3044 38.9365C52.7511 38.9365 51.4873 37.6726 51.4873 36.1194C51.4873 34.5662 52.7511 33.3023 54.3044 33.3023C55.8576 33.3023 57.1215 34.5662 57.1215 36.1194C57.1215 37.6726 55.8576 38.9365 54.3044 38.9365ZM54.3044 33.8686C53.0631 33.8686 52.0535 34.8782 52.0535 36.1194C52.0535 37.3606 53.0631 38.3703 54.3044 38.3703C55.5456 38.3703 56.5552 37.3606 56.5552 36.1194C56.5552 34.8782 55.5456 33.8686 54.3044 33.8686Z" fill="#2A96F0"/>
<path d="M56.0802 36.1193C56.0802 37.0994 55.2852 37.8945 54.305 37.8945C53.3248 37.8945 52.5298 37.0994 52.5298 36.1193C52.5298 35.1391 53.3248 34.3441 54.305 34.3441C55.2852 34.3441 56.0802 35.1391 56.0802 36.1193Z" fill="#2A96F0"/>
<path d="M52.2663 94.1482C50.7131 94.1482 49.4492 92.8843 49.4492 91.3311C49.4492 89.7779 50.7131 88.514 52.2663 88.514C53.8195 88.514 55.0834 89.7779 55.0834 91.3311C55.0834 92.8843 53.8195 94.1482 52.2663 94.1482ZM52.2663 89.0802C51.0251 89.0802 50.0154 90.0899 50.0154 91.3311C50.0154 92.5723 51.0251 93.5819 52.2663 93.5819C53.5075 93.5819 54.5171 92.5723 54.5171 91.3311C54.5171 90.0899 53.5069 89.0802 52.2663 89.0802Z" fill="#2A96F0"/>
<path d="M54.0416 91.3312C54.0416 92.3113 53.2466 93.1063 52.2664 93.1063C51.2862 93.1063 50.4912 92.3113 50.4912 91.3312C50.4912 90.351 51.2862 89.556 52.2664 89.556C53.2466 89.556 54.0416 90.351 54.0416 91.3312Z" fill="#2A96F0"/>
<path d="M11.0887 101.87C9.53545 101.87 8.27158 100.606 8.27158 99.0525C8.27158 97.4992 9.53545 96.2354 11.0887 96.2354C12.6419 96.2354 13.9058 97.4992 13.9058 99.0525C13.9058 100.606 12.6419 101.87 11.0887 101.87ZM11.0887 96.8016C9.84745 96.8016 8.83783 97.8112 8.83783 99.0525C8.83783 100.294 9.84745 101.303 11.0887 101.303C12.3299 101.303 13.3395 100.294 13.3395 99.0525C13.3395 97.8112 12.3299 96.8016 11.0887 96.8016Z" fill="#2A96F0"/>
<path d="M12.864 99.0522C12.864 100.033 12.0689 100.827 11.0888 100.827C10.1086 100.827 9.31357 100.032 9.31357 99.0522C9.31357 98.072 10.1086 97.277 11.0888 97.277C12.0689 97.277 12.864 98.0715 12.864 99.0522Z" fill="#2A96F0"/>
<path d="M132.913 49.4759C134.659 49.4759 136.074 48.0605 136.074 46.3146C136.074 44.5686 134.659 43.1532 132.913 43.1532C131.167 43.1532 129.752 44.5686 129.752 46.3146C129.752 48.0605 131.167 49.4759 132.913 49.4759Z" fill="#2A96F0"/>
<path d="M380.9 58.1149C380.979 56.3707 379.629 54.8926 377.885 54.8135C376.141 54.7344 374.663 56.0842 374.583 57.8285C374.504 59.5727 375.854 61.0508 377.598 61.1299C379.343 61.209 380.821 59.8591 380.9 58.1149Z" fill="#2A96F0"/>
<path d="M347.704 111.839C347.704 113.585 346.289 115.001 344.543 115.001C342.797 115.001 341.382 113.585 341.382 111.839C341.382 110.094 342.797 108.678 344.543 108.678C346.289 108.678 347.704 110.094 347.704 111.839Z" fill="#2A96F0"/>
<path d="M334.298 172.055C334.298 173.199 333.371 174.125 332.227 174.125C331.084 174.125 330.157 173.198 330.157 172.055C330.157 170.912 331.085 169.985 332.227 169.985C333.371 169.985 334.298 170.912 334.298 172.055Z" fill="#2A96F0"/>
<path d="M244.264 155.981C244.264 157.124 243.337 158.051 242.194 158.051C241.05 158.051 240.124 157.124 240.124 155.981C240.124 154.837 241.051 153.91 242.194 153.91C243.337 153.91 244.264 154.837 244.264 155.981Z" fill="#2A96F0"/>
<path d="M265.062 61.9006C266.808 61.9006 268.224 60.4852 268.224 58.7392C268.224 56.9932 266.808 55.5778 265.062 55.5778C263.316 55.5778 261.901 56.9932 261.901 58.7392C261.901 60.4852 263.316 61.9006 265.062 61.9006Z" fill="#2A96F0"/>
<path d="M300.924 59.3558C300.924 60.5868 299.926 61.5845 298.696 61.5845C297.465 61.5845 296.467 60.5868 296.467 59.3558C296.467 58.1247 297.465 57.127 298.696 57.127C299.926 57.127 300.924 58.1247 300.924 59.3558Z" fill="#2A96F0"/>
<path d="M308.887 63.328C308.887 64.6304 307.831 65.6865 306.529 65.6865C305.227 65.6865 304.17 64.6304 304.17 63.328C304.17 62.0257 305.227 60.9696 306.529 60.9696C307.83 60.9696 308.887 62.0257 308.887 63.328Z" fill="#2A96F0"/>
<path d="M174.438 123.724C176.731 123.724 178.59 121.865 178.59 119.572C178.59 117.279 176.731 115.42 174.438 115.42C172.145 115.42 170.286 117.279 170.286 119.572C170.286 121.865 172.145 123.724 174.438 123.724Z" fill="#2A96F0"/>
<path d="M284.369 160.133C286.662 160.133 288.522 158.274 288.522 155.981C288.522 153.687 286.662 151.828 284.369 151.828C282.076 151.828 280.217 153.687 280.217 155.981C280.217 158.274 282.076 160.133 284.369 160.133Z" fill="#2A96F0"/>
<path d="M158.583 81.8239C158.583 82.8924 157.716 83.7587 156.648 83.7587C155.579 83.7587 154.713 82.8924 154.713 81.8239C154.713 80.7553 155.579 79.889 156.648 79.889C157.716 79.8895 158.583 80.7559 158.583 81.8239Z" fill="#2A96F0"/>
<path d="M170.302 72.529C167.934 72.529 166.007 70.6026 166.007 68.2346C166.007 65.8665 167.934 63.9401 170.302 63.9401C172.671 63.9401 174.597 65.8665 174.597 68.2346C174.597 70.6026 172.671 72.529 170.302 72.529ZM170.302 64.5058C168.246 64.5058 166.574 66.1785 166.574 68.234C166.574 70.2901 168.246 71.9622 170.302 71.9622C172.359 71.9622 174.031 70.2895 174.031 68.234C174.031 66.1785 172.359 64.5058 170.302 64.5058Z" fill="#2A96F0"/>
<path d="M173.075 68.2343C173.075 69.7655 171.834 71.0067 170.302 71.0067C168.771 71.0067 167.53 69.7649 167.53 68.2343C167.53 66.7032 168.772 65.462 170.302 65.462C171.833 65.462 173.075 66.7037 173.075 68.2343Z" fill="#2A96F0"/>
<path d="M75.6271 72.8813C77.3731 72.8813 78.7884 71.4659 78.7884 69.7199C78.7884 67.9739 77.3731 66.5585 75.6271 66.5585C73.8811 66.5585 72.4657 67.9739 72.4657 69.7199C72.4657 71.4659 73.8811 72.8813 75.6271 72.8813Z" fill="#2A96F0"/>
<path d="M57.2246 72.8813C58.9706 72.8813 60.386 71.4659 60.386 69.7199C60.386 67.9739 58.9706 66.5585 57.2246 66.5585C55.4786 66.5585 54.0632 67.9739 54.0632 69.7199C54.0632 71.4659 55.4786 72.8813 57.2246 72.8813Z" fill="#2A96F0"/>
<path d="M16.9562 84.9342C18.7022 84.9342 20.1176 83.5188 20.1176 81.7728C20.1176 80.0269 18.7022 78.6115 16.9562 78.6115C15.2102 78.6115 13.7948 80.0269 13.7948 81.7728C13.7948 83.5188 15.2102 84.9342 16.9562 84.9342Z" fill="#2A96F0"/>
<path d="M122.484 58.0194C123.162 58.0194 123.711 57.4701 123.711 56.7924C123.711 56.1147 123.162 55.5653 122.484 55.5653C121.807 55.5653 121.257 56.1147 121.257 56.7924C121.257 57.4701 121.807 58.0194 122.484 58.0194Z" fill="#2A96F0"/>
<path d="M148.343 48.485C149.542 48.485 150.514 47.5132 150.514 46.3145C150.514 45.1158 149.542 44.1441 148.343 44.1441C147.145 44.1441 146.173 45.1158 146.173 46.3145C146.173 47.5132 147.145 48.485 148.343 48.485Z" fill="#2A96F0"/>
<path d="M85.7726 48.485C86.9713 48.485 87.9431 47.5132 87.9431 46.3145C87.9431 45.1158 86.9713 44.1441 85.7726 44.1441C84.5739 44.1441 83.6022 45.1158 83.6022 46.3145C83.6022 47.5132 84.5739 48.485 85.7726 48.485Z" fill="#2A96F0"/>
<path d="M33.4414 58.9629C34.6401 58.9629 35.6118 57.9911 35.6118 56.7924C35.6118 55.5937 34.6401 54.622 33.4414 54.622C32.2427 54.622 31.2709 55.5937 31.2709 56.7924C31.2709 57.9911 32.2427 58.9629 33.4414 58.9629Z" fill="#2A96F0"/>
<path d="M271.456 23.615L93.6534 23.615C93.4971 23.615 93.3703 23.4882 93.3703 23.3319C93.3703 23.1756 93.4971 23.0488 93.6534 23.0488L271.456 23.0488C271.612 23.0488 271.739 23.1756 271.739 23.3319C271.739 23.4882 271.612 23.615 271.456 23.615Z" fill="#2A96F0"/>
<path d="M92.0487 25.5024C93.2474 25.5024 94.2191 24.5306 94.2191 23.3319C94.2191 22.1332 93.2474 21.1615 92.0487 21.1615C90.85 21.1615 89.8783 22.1332 89.8783 23.3319C89.8783 24.5306 90.85 25.5024 92.0487 25.5024Z" fill="#2A96F0"/>
<path d="M271.456 25.5028C272.655 25.5028 273.627 24.5308 273.627 23.3318C273.627 22.1328 272.655 21.1608 271.456 21.1608C270.257 21.1608 269.285 22.1328 269.285 23.3318C269.285 24.5308 270.257 25.5028 271.456 25.5028Z" fill="#2A96F0"/>
<path d="M299.158 59.0197C299.086 59.0197 299.013 58.992 298.958 58.9371C298.847 58.8266 298.847 58.6471 298.958 58.5367L364.919 -7.42467C365.029 -7.53509 365.209 -7.53509 365.319 -7.42467C365.43 -7.31426 365.43 -7.13475 365.319 -7.02434L299.358 58.9365C299.303 58.992 299.23 59.0197 299.158 59.0197Z" fill="#2A96F0"/>
<path d="M307.36 62.6919C307.287 62.6919 307.215 62.6641 307.16 62.6092C307.049 62.4988 307.049 62.3193 307.16 62.2089L373.121 -3.75311C373.231 -3.86353 373.411 -3.86353 373.521 -3.75311C373.631 -3.64269 373.631 -3.46319 373.521 -3.35277L307.56 62.6086C307.505 62.6641 307.432 62.6919 307.36 62.6919Z" fill="#2A96F0"/>
<path d="M378.589 133.122H283.587L241.993 91.528C241.883 91.4175 241.883 91.238 241.993 91.1276C242.104 91.0172 242.283 91.0172 242.394 91.1276L283.822 132.556H378.589C378.746 132.556 378.873 132.683 378.873 132.839C378.873 132.996 378.746 133.122 378.589 133.122Z" fill="#2A96F0"/>
</svg>
