<svg width="937" height="850" viewBox="0 0 937 850" fill="none" xmlns="http://www.w3.org/2000/svg">
<path d="M722.956 -15.8875L529.838 177.23L429.924 177.231L319.29 287.865L213.543 287.865L139.527 361.881C139.282 362.126 138.884 362.126 138.638 361.881C138.393 361.636 138.393 361.238 138.638 360.992L213.023 286.608H318.769L429.403 175.974L529.318 175.973L722.067 -16.7761C722.312 -17.0213 722.71 -17.0214 722.956 -16.7761C723.201 -16.5308 723.201 -16.1327 722.956 -15.8875Z" fill="#2A96F0"/>
<path d="M282.672 330.188L62.7001 550.16C62.4549 550.405 62.0568 550.405 61.8115 550.16C61.5662 549.914 61.5662 549.516 61.8115 549.271L281.414 329.668L281.416 203.997L362.402 123.011L455.825 123.011L504.627 74.2087L504.628 -165.963C504.628 -166.31 504.91 -166.591 505.257 -166.591C505.603 -166.591 505.885 -166.31 505.885 -165.963L505.884 74.7295L456.346 124.268L362.923 124.268L282.672 204.518L282.672 330.188Z" fill="#2A96F0"/>
<path d="M904.872 -7.91874L649.906 247.048L395.404 247.048L311.299 331.152L204.032 331.151L50.2237 484.959C49.7332 485.45 48.9369 485.45 48.4464 484.959C47.9559 484.469 47.9559 483.673 48.4464 483.182L202.991 328.638L310.258 328.639L394.362 244.535L648.865 244.534L903.095 -9.69599C903.587 -10.1874 904.381 -10.1874 904.872 -9.69598C905.363 -9.20547 905.364 -8.41014 904.872 -7.91874Z" fill="#2A96F0"/>
<path d="M624.674 220.937L483.394 362.217L280.482 362.217L137.75 504.95C137.504 505.195 137.106 505.195 136.861 504.95C136.616 504.704 136.616 504.306 136.861 504.061L279.961 360.961H482.873L623.418 220.417L623.418 23.1772L714.382 -67.787C714.627 -68.0323 715.025 -68.0323 715.271 -67.787C715.516 -67.5418 715.516 -67.1437 715.271 -66.8984L624.675 23.6971L624.674 220.937Z" fill="#2A96F0"/>
<path d="M189.623 385.247L136.269 438.6C136.024 438.845 135.626 438.845 135.381 438.6C135.136 438.355 135.136 437.956 135.381 437.711L188.366 384.726V272.759L283.224 177.901H360.535L453.029 85.4063L453.028 -118.865C453.028 -119.211 453.31 -119.493 453.657 -119.493C454.003 -119.493 454.285 -119.211 454.285 -118.865L454.286 85.9271L361.056 179.156L283.746 179.156L189.623 273.28L189.623 385.247Z" fill="#2A96F0"/>
<path d="M699.967 247.486L634.754 312.7L418.547 312.699L282.419 448.827L218.105 448.827L84.9961 581.936C84.7509 582.181 84.3528 582.181 84.1075 581.936C83.8623 581.69 83.8623 581.292 84.1075 581.047L217.585 447.569H281.899L418.026 311.442L634.232 311.442L698.71 246.964L698.71 111.916L822.818 -12.1917C823.063 -12.437 823.461 -12.4369 823.707 -12.1917C823.952 -11.9464 823.952 -11.5483 823.707 -11.3031L699.966 112.437L699.967 247.486Z" fill="#2A96F0"/>
<path d="M125.085 345.221L55.1085 415.198C54.6179 415.688 53.8217 415.688 53.3312 415.198C52.8407 414.707 52.8407 413.911 53.3312 413.421L122.572 344.18L122.571 264.796L274.23 113.137L274.228 -113.138C274.228 -113.833 274.789 -114.395 275.484 -114.395C276.179 -114.395 276.741 -113.833 276.741 -113.138L276.742 65.519L276.743 114.177L125.083 265.837L125.085 345.221Z" fill="#2A96F0"/>
<path d="M112.868 388.539L47.3705 454.037L-24.7557 454.037L-111.435 540.716C-111.68 540.962 -112.078 540.962 -112.324 540.716C-112.569 540.471 -112.569 540.073 -112.324 539.828L-25.2765 452.781L46.8498 452.781L111.98 387.651C112.225 387.405 112.623 387.405 112.868 387.651C113.114 387.896 113.114 388.294 112.868 388.539Z" fill="#2A96F0"/>
<path d="M107.394 467.483L59.2238 515.654L-34.8231 515.654L-109.626 590.456C-109.871 590.701 -110.269 590.701 -110.514 590.456C-110.76 590.211 -110.76 589.813 -110.514 589.568L-35.3439 514.397L58.703 514.397L106.506 466.594C106.751 466.349 107.149 466.349 107.394 466.594C107.64 466.84 107.64 467.238 107.394 467.483Z" fill="#2A96F0"/>
<path d="M63.116 549.592C63.0022 549.706 62.845 549.776 62.6717 549.777L-19.6729 549.776L-104.788 634.891C-105.034 635.137 -105.432 635.137 -105.677 634.891C-105.922 634.646 -105.922 634.248 -105.677 634.003L-20.1936 548.519L62.6708 548.519C63.0174 548.519 63.299 548.801 63.299 549.148C63.2999 549.321 63.2297 549.478 63.116 549.592Z" fill="#2A96F0"/>
<path d="M570.244 73.3523L508.089 135.507C507.598 135.999 506.802 135.998 506.312 135.507C505.821 135.017 505.821 134.221 506.312 133.73L567.731 72.3108L567.73 -32.5924L595.023 -59.8848C595.514 -60.3762 596.309 -60.3753 596.8 -59.8848C597.29 -59.3943 597.291 -58.5989 596.8 -58.1075L570.243 -31.5509L570.244 73.3523Z" fill="#2A96F0"/>
<path d="M705.637 253.523C702.167 256.993 696.519 256.993 693.049 253.523C689.578 250.053 689.578 244.405 693.049 240.935C696.519 237.465 702.167 237.465 705.637 240.935C709.107 244.405 709.107 250.053 705.637 253.523ZM693.937 241.824C690.957 244.804 690.956 249.653 693.937 252.635C696.918 255.615 701.768 255.615 704.748 252.635C707.729 249.654 707.73 244.805 704.748 241.824C701.767 238.842 696.918 238.843 693.937 241.824Z" fill="#2A96F0"/>
<path d="M703.441 251.327C705.704 249.064 705.704 245.394 703.441 243.131C701.178 240.867 697.508 240.867 695.244 243.131C692.981 245.394 692.981 249.064 695.244 251.327C697.508 253.591 701.178 253.591 703.441 251.327Z" fill="#2A96F0"/>
<path d="M535.719 183.055C532.249 186.525 526.602 186.526 523.131 183.055C519.66 179.584 519.661 173.937 523.131 170.467C526.601 166.997 532.248 166.996 535.719 170.467C539.19 173.938 539.19 179.585 535.719 183.055ZM524.02 171.356C521.038 174.337 521.039 179.186 524.02 182.167C527 185.147 531.849 185.148 534.831 182.167C537.811 179.186 537.811 174.336 534.831 171.356C531.85 168.375 527.001 168.374 524.02 171.356Z" fill="#2A96F0"/>
<path d="M533.524 180.859C535.787 178.596 535.787 174.926 533.524 172.663C531.26 170.399 527.591 170.399 525.327 172.663C523.064 174.926 523.064 178.596 525.327 180.859C527.591 183.123 531.26 183.123 533.524 180.859Z" fill="#2A96F0"/>
<path d="M507.126 147.28C503.656 150.75 498.009 150.751 494.538 147.28C491.067 143.809 491.068 138.162 494.538 134.692C498.008 131.222 503.655 131.221 507.126 134.692C510.597 138.163 510.597 143.81 507.126 147.28ZM495.427 135.58C492.446 138.561 492.446 143.411 495.427 146.391C498.407 149.372 503.257 149.372 506.238 146.391C509.218 143.411 509.218 138.561 506.238 135.58C503.257 132.6 498.407 132.6 495.427 135.58Z" fill="#2A96F0"/>
<path d="M504.931 145.084C507.194 142.821 507.194 139.151 504.931 136.888C502.667 134.624 498.998 134.624 496.734 136.888C494.471 139.151 494.471 142.821 496.734 145.084C498.998 147.348 502.667 147.348 504.931 145.084Z" fill="#2A96F0"/>
<path d="M435.238 206.58C437.502 208.843 437.502 212.513 435.238 214.777C432.975 217.04 429.305 217.04 427.042 214.777C424.778 212.513 424.779 208.842 427.042 206.58C429.304 204.318 432.975 204.317 435.238 206.58Z" fill="#2A96F0"/>
<path d="M716.021 64.2822C718.285 62.0188 718.285 58.349 716.021 56.0855C713.758 53.8221 710.088 53.8221 707.825 56.0855C705.561 58.349 705.561 62.0188 707.825 64.2822C710.088 66.5457 713.758 66.5457 716.021 64.2822Z" fill="#2A96F0"/>
<path d="M314.366 185.563C310.896 189.033 305.249 189.034 301.778 185.563C298.307 182.092 298.308 176.445 301.778 172.974C305.248 169.504 310.895 169.503 314.366 172.974C317.837 176.445 317.836 182.093 314.366 185.563ZM302.667 173.863C299.685 176.844 299.686 181.694 302.667 184.674C305.647 187.655 310.496 187.655 313.478 184.674C316.458 181.694 316.458 176.844 313.478 173.863C310.497 170.883 305.648 170.882 302.667 173.863Z" fill="#2A96F0"/>
<path d="M312.17 183.367C314.434 181.103 314.434 177.434 312.17 175.17C309.907 172.907 306.237 172.907 303.973 175.17C301.71 177.434 301.71 181.103 303.973 183.367C306.237 185.63 309.907 185.63 312.17 183.367Z" fill="#2A96F0"/>
<path d="M139.531 373.585C136.06 377.056 130.414 377.056 126.943 373.585C123.472 370.114 123.472 364.468 126.943 360.997C130.414 357.526 136.06 357.526 139.531 360.997C143.002 364.468 143.002 370.114 139.531 373.585ZM127.832 361.885C124.851 364.866 124.851 369.716 127.832 372.696C130.812 375.677 135.662 375.677 138.643 372.696C141.623 369.716 141.623 364.866 138.643 361.885C135.662 358.905 130.812 358.905 127.832 361.885Z" fill="#2A96F0"/>
<path d="M137.336 371.389C139.599 369.126 139.599 365.456 137.336 363.192C135.072 360.929 131.402 360.929 129.139 363.192C126.875 365.456 126.875 369.126 129.139 371.389C131.402 373.653 135.072 373.653 137.336 371.389Z" fill="#2A96F0"/>
<path d="M54.0581 423.312C51.6206 425.75 47.6538 425.75 45.2163 423.312C42.7788 420.875 42.7788 416.908 45.2163 414.471C47.6538 412.033 51.6206 412.033 54.0581 414.471C56.4956 416.908 56.4956 420.875 54.0581 423.312ZM46.1049 415.359C44.157 417.307 44.157 420.476 46.1049 422.424C48.0528 424.372 51.2216 424.372 53.1695 422.424C55.1173 420.476 55.1173 417.307 53.1695 415.359C51.2216 413.411 48.0528 413.411 46.1049 415.359Z" fill="#2A96F0"/>
<path d="M52.424 416.105C53.9623 417.643 53.9623 420.138 52.4241 421.677C50.8858 423.215 48.3906 423.215 46.8524 421.676C45.3142 420.138 45.3142 417.643 46.8524 416.105C48.3906 414.567 50.8858 414.567 52.424 416.105Z" fill="#2A96F0"/>
<path d="M137.504 513.155C135.067 515.593 131.1 515.593 128.663 513.155C126.225 510.718 126.225 506.751 128.663 504.314C131.1 501.876 135.067 501.876 137.504 504.314C139.942 506.751 139.942 510.718 137.504 513.155ZM129.551 505.202C127.603 507.15 127.603 510.319 129.551 512.267C131.499 514.215 134.668 514.215 136.616 512.267C138.564 510.319 138.564 507.15 136.616 505.202C134.668 503.254 131.498 503.255 129.551 505.202Z" fill="#2A96F0"/>
<path d="M135.87 505.949C137.408 507.487 137.408 509.982 135.87 511.52C134.331 513.059 131.836 513.059 130.298 511.52C128.76 509.982 128.76 507.487 130.298 505.949C131.836 504.41 134.331 504.41 135.87 505.949Z" fill="#2A96F0"/>
<path d="M85.001 589.894C82.5635 592.331 78.5966 592.331 76.1591 589.894C73.7216 587.456 73.7216 583.489 76.1591 581.052C78.5966 578.614 82.5635 578.614 85.001 581.052C87.4385 583.489 87.4385 587.456 85.001 589.894ZM77.0478 581.94C75.0999 583.888 75.0999 587.057 77.0478 589.005C78.9956 590.953 82.1645 590.953 84.1123 589.005C86.0602 587.057 86.0602 583.888 84.1123 581.94C82.1645 579.992 78.9956 579.992 77.0478 581.94Z" fill="#2A96F0"/>
<path d="M83.3659 582.687C84.905 584.226 84.9041 586.72 83.3659 588.259C81.8277 589.797 79.3324 589.797 77.7942 588.259C76.256 586.72 76.256 584.225 77.7942 582.687C79.3324 581.149 81.8268 581.148 83.3659 582.687Z" fill="#2A96F0"/>
<path d="M193.96 316.49C196.7 313.75 196.7 309.308 193.96 306.568C191.22 303.828 186.777 303.828 184.037 306.568C181.297 309.308 181.297 313.75 184.037 316.49C186.777 319.23 191.22 319.23 193.96 316.49Z" fill="#2A96F0"/>
<path d="M628.904 77.2829C631.643 80.0225 631.643 84.4656 628.904 87.2053C626.164 89.9449 621.721 89.9449 618.981 87.2053C616.241 84.4657 616.241 80.0225 618.981 77.2829C621.721 74.5432 626.164 74.5432 628.904 77.2829Z" fill="#2A96F0"/>
<path d="M702.362 192.82C704.156 194.614 704.155 197.523 702.361 199.317C700.567 201.111 697.658 201.111 695.864 199.318C694.069 197.523 694.07 194.612 695.864 192.819C697.658 191.025 700.568 191.026 702.362 192.82Z" fill="#2A96F0"/>
<path d="M535.845 308.886C537.639 310.679 537.639 313.589 535.844 315.383C534.05 317.177 531.141 317.177 529.348 315.384C527.553 313.589 527.554 310.678 529.347 308.885C531.141 307.091 534.05 307.091 535.845 308.886Z" fill="#2A96F0"/>
<path d="M420.842 128.604C423.582 125.864 423.582 121.422 420.842 118.682C418.102 115.942 413.66 115.942 410.92 118.682C408.18 121.422 408.18 125.864 410.92 128.604C413.66 131.344 418.102 131.344 420.842 128.604Z" fill="#2A96F0"/>
<path d="M473.127 68.3325C475.059 70.2644 475.059 73.3959 473.128 75.3269C471.196 77.2588 468.065 77.2588 466.133 75.3269C464.201 73.395 464.201 70.2635 466.133 68.3317C468.064 66.4007 471.195 66.4007 473.127 68.3325Z" fill="#2A96F0"/>
<path d="M491.857 62.0693C493.901 64.1132 493.9 67.4286 491.858 69.4716C489.815 71.5145 486.499 71.5155 484.455 69.4716C482.411 67.4278 482.412 64.1123 484.455 62.0693C486.497 60.0273 489.814 60.0255 491.857 62.0693Z" fill="#2A96F0"/>
<path d="M375.645 367.844C379.244 364.245 379.244 358.41 375.645 354.811C372.046 351.212 366.211 351.213 362.612 354.811C359.014 358.41 359.014 364.245 362.612 367.844C366.211 371.443 372.046 371.443 375.645 367.844Z" fill="#2A96F0"/>
<path d="M605.298 252.464C608.897 248.865 608.897 243.03 605.298 239.431C601.7 235.832 595.865 235.832 592.266 239.431C588.667 243.03 588.667 248.865 592.266 252.464C595.865 256.062 601.7 256.062 605.298 252.464Z" fill="#2A96F0"/>
<path d="M285.008 326.971C286.685 328.647 286.685 331.367 285.008 333.043C283.331 334.72 280.612 334.72 278.935 333.043C277.258 331.367 277.258 328.647 278.935 326.971C280.613 325.295 283.332 325.295 285.008 326.971Z" fill="#2A96F0"/>
<path d="M288.813 293.992C285.097 297.708 279.05 297.709 275.334 293.993C271.617 290.277 271.617 284.231 275.335 280.514C279.051 276.797 285.097 276.797 288.813 280.514C292.53 284.229 292.529 290.276 288.813 293.992ZM276.222 281.401C272.996 284.628 272.996 289.878 276.221 293.104C279.448 296.33 284.697 296.329 287.924 293.103C291.15 289.876 291.149 284.627 287.924 281.401C284.699 278.175 279.449 278.175 276.222 281.401Z" fill="#2A96F0"/>
<path d="M286.425 282.9C288.828 285.303 288.827 289.2 286.424 291.603C284.021 294.005 280.124 294.005 277.723 291.603C275.32 289.2 275.321 285.303 277.723 282.901C280.124 280.499 284.023 280.498 286.425 282.9Z" fill="#2A96F0"/>
<path d="M140.79 443.12C143.53 440.38 143.53 435.938 140.79 433.198C138.05 430.458 133.608 430.458 130.868 433.198C128.128 435.938 128.128 440.38 130.868 443.12C133.608 445.86 138.05 445.86 140.79 443.12Z" fill="#2A96F0"/>
<path d="M111.911 472C114.651 469.26 114.651 464.817 111.911 462.077C109.171 459.337 104.729 459.337 101.989 462.077C99.2486 464.817 99.2485 469.26 101.989 472C104.729 474.74 109.171 474.74 111.911 472Z" fill="#2A96F0"/>
<path d="M67.6321 554.109C70.3721 551.369 70.3721 546.926 67.6321 544.186C64.8921 541.446 60.4497 541.446 57.7097 544.186C54.9697 546.926 54.9697 551.369 57.7097 554.109C60.4497 556.849 64.8921 556.849 67.6321 554.109Z" fill="#2A96F0"/>
<path d="M191.001 346.264C192.065 345.2 192.065 343.476 191.001 342.413C189.938 341.349 188.214 341.349 187.15 342.413C186.087 343.476 186.087 345.2 187.15 346.264C188.214 347.327 189.938 347.327 191.001 346.264Z" fill="#2A96F0"/>
<path d="M216.62 290.72C218.501 288.839 218.501 285.789 216.62 283.908C214.739 282.027 211.689 282.027 209.808 283.908C207.926 285.789 207.926 288.839 209.808 290.72C211.689 292.601 214.739 292.601 216.62 290.72Z" fill="#2A96F0"/>
<path d="M118.426 388.914C120.308 387.032 120.308 383.982 118.426 382.101C116.545 380.22 113.495 380.22 111.614 382.101C109.733 383.982 109.733 387.032 111.614 388.914C113.495 390.795 116.545 390.795 118.426 388.914Z" fill="#2A96F0"/>
<path d="M52.7453 487.481C54.6264 485.6 54.6264 482.55 52.7453 480.669C50.8642 478.788 47.8142 478.788 45.9331 480.669C44.0519 482.55 44.0519 485.6 45.9331 487.481C47.8142 489.362 50.8642 489.362 52.7453 487.481Z" fill="#2A96F0"/>
<path d="M370.793 58.4884L91.7646 337.517C91.5193 337.762 91.1212 337.762 90.876 337.517C90.6307 337.272 90.6307 336.874 90.876 336.628L369.905 57.5998C370.15 57.3545 370.548 57.3545 370.793 57.5998C371.039 57.845 371.039 58.2431 370.793 58.4884Z" fill="#2A96F0"/>
<path d="M92.2081 342.997C94.0893 341.116 94.0892 338.066 92.2081 336.185C90.327 334.304 87.277 334.304 85.3959 336.185C83.5148 338.066 83.5148 341.116 85.3959 342.997C87.2771 344.878 90.327 344.878 92.2081 342.997Z" fill="#2A96F0"/>
<path d="M373.756 61.451C375.638 59.5694 375.638 56.5186 373.756 54.637C371.874 52.7553 368.824 52.7554 366.942 54.637C365.06 56.5186 365.06 59.5693 366.942 61.451C368.824 63.3326 371.874 63.3326 373.756 61.451Z" fill="#2A96F0"/>
<path d="M469.828 70.5763C469.714 70.6901 469.557 70.7603 469.384 70.7612C469.037 70.7612 468.755 70.4795 468.755 70.1329L468.755 -136.896C468.755 -137.242 469.037 -137.524 469.384 -137.524C469.73 -137.524 470.012 -137.242 470.012 -136.896L470.011 70.132C470.012 70.3053 469.942 70.4626 469.828 70.5763Z" fill="#2A96F0"/>
<path d="M488.462 63.4684C488.348 63.5821 488.191 63.6523 488.018 63.6523C487.672 63.6523 487.39 63.3706 487.39 63.024L487.388 -144.005C487.388 -144.351 487.67 -144.633 488.017 -144.633C488.363 -144.633 488.645 -144.351 488.645 -144.005L488.646 63.0232C488.646 63.1973 488.576 63.3546 488.462 63.4684Z" fill="#2A96F0"/>
<path d="M710.772 62.2144L561.684 211.303L431.135 211.302C430.788 211.302 430.506 211.02 430.506 210.674C430.506 210.327 430.788 210.045 431.135 210.045L561.163 210.046L709.883 61.3257C710.129 61.0805 710.527 61.0805 710.772 61.3257C711.017 61.571 711.018 61.9682 710.772 62.2144Z" fill="#2A96F0"/>
</svg>
