<svg width="682" height="931" viewBox="0 0 682 931" fill="none" xmlns="http://www.w3.org/2000/svg">
<path d="M865.752 716.956L672.635 523.838L672.634 423.924L562 313.29L562 207.543L487.983 133.527C487.738 133.282 487.738 132.884 487.983 132.638C488.229 132.393 488.627 132.393 488.872 132.638L563.256 207.023V312.769L673.89 423.403L673.891 523.318L866.64 716.067C866.886 716.312 866.886 716.71 866.64 716.956C866.395 717.201 865.997 717.201 865.752 716.956Z" fill="#2A96F0"/>
<path d="M519.676 276.672L299.704 56.7001C299.459 56.4548 299.459 56.0567 299.704 55.8114C299.95 55.5662 300.348 55.5662 300.593 55.8114L520.196 275.414L645.867 275.416L726.853 356.402L726.853 449.825L775.655 498.627L1015.83 498.628C1016.17 498.628 1016.46 498.91 1016.46 499.256C1016.46 499.603 1016.17 499.885 1015.83 499.885L775.135 499.884L725.596 450.346L725.596 356.922L645.346 276.672L519.676 276.672Z" fill="#2A96F0"/>
<path d="M857.783 898.872L602.817 643.906L602.817 389.403L518.713 305.299L518.714 198.032L364.905 44.2236C364.414 43.7331 364.414 42.9369 364.905 42.4464C365.395 41.9558 366.192 41.9558 366.682 42.4464L521.227 196.991L521.226 304.258L605.33 388.362L605.33 642.865L859.56 897.095C860.052 897.586 860.052 898.381 859.56 898.872C859.07 899.363 858.274 899.364 857.783 898.872Z" fill="#2A96F0"/>
<path d="M628.927 618.674L487.647 477.394L487.647 274.482L344.915 131.749C344.669 131.504 344.669 131.106 344.915 130.861C345.16 130.616 345.558 130.616 345.803 130.861L488.903 273.961V476.873L629.448 617.418L826.687 617.418L917.651 708.382C917.897 708.627 917.897 709.025 917.651 709.27C917.406 709.516 917.008 709.516 916.763 709.27L826.167 618.675L628.927 618.674Z" fill="#2A96F0"/>
<path d="M464.618 183.622L411.264 130.269C411.019 130.024 411.019 129.626 411.264 129.381C411.51 129.135 411.908 129.135 412.153 129.381L465.138 182.366H577.105L671.963 277.224V354.535L764.458 447.029L968.729 447.028C969.076 447.028 969.357 447.31 969.357 447.656C969.357 448.003 969.076 448.285 968.729 448.285L763.937 448.286L670.708 355.056L670.708 277.746L576.584 183.622L464.618 183.622Z" fill="#2A96F0"/>
<path d="M602.378 693.967L537.165 628.754L537.166 412.547L401.038 276.419L401.038 212.105L267.929 78.9961C267.683 78.7509 267.683 78.3528 267.929 78.1075C268.174 77.8622 268.572 77.8622 268.817 78.1075L402.295 211.585V275.899L538.422 412.026L538.422 628.232L602.9 692.71L737.948 692.71L862.056 816.818C862.301 817.063 862.301 817.461 862.056 817.707C861.811 817.952 861.413 817.952 861.167 817.707L737.427 693.966L602.378 693.967Z" fill="#2A96F0"/>
<path d="M504.643 119.085L434.666 49.1084C434.176 48.6179 434.176 47.8216 434.666 47.3311C435.157 46.8406 435.953 46.8406 436.444 47.3311L505.685 116.572L585.068 116.571L736.727 268.23L963.002 268.228C963.697 268.228 964.259 268.789 964.259 269.484C964.259 270.179 963.697 270.741 963.002 270.741L784.345 270.742L735.687 270.742L584.028 119.083L504.643 119.085Z" fill="#2A96F0"/>
<path d="M461.325 106.868L395.827 41.3705L395.827 -30.7558L309.148 -117.435C308.903 -117.68 308.903 -118.078 309.148 -118.324C309.393 -118.569 309.791 -118.569 310.036 -118.324L397.084 -31.2765L397.084 40.8498L462.214 105.98C462.459 106.225 462.459 106.623 462.214 106.868C461.968 107.114 461.57 107.114 461.325 106.868Z" fill="#2A96F0"/>
<path d="M382.381 101.394L334.211 53.2237L334.211 -40.8232L259.408 -115.626C259.163 -115.871 259.163 -116.269 259.408 -116.514C259.653 -116.76 260.051 -116.76 260.297 -116.514L335.467 -41.3439L335.467 52.703L383.27 100.506C383.515 100.751 383.515 101.149 383.27 101.394C383.025 101.64 382.627 101.64 382.381 101.394Z" fill="#2A96F0"/>
<path d="M300.272 57.1159C300.159 57.0022 300.088 56.8449 300.088 56.6716L300.088 -25.6729L214.973 -110.788C214.728 -111.034 214.728 -111.432 214.973 -111.677C215.218 -111.922 215.616 -111.922 215.862 -111.677L301.345 -26.1937L301.345 56.6708C301.345 57.0173 301.063 57.299 300.717 57.299C300.543 57.2999 300.386 57.2297 300.272 57.1159Z" fill="#2A96F0"/>
<path d="M596.341 699.637C592.871 696.167 592.871 690.519 596.341 687.049C599.811 683.578 605.459 683.578 608.929 687.049C612.399 690.519 612.399 696.167 608.929 699.637C605.459 703.107 599.811 703.107 596.341 699.637ZM608.041 687.937C605.06 684.957 600.211 684.956 597.23 687.937C594.249 690.918 594.249 695.768 597.23 698.748C600.21 701.729 605.059 701.73 608.041 698.748C611.022 695.767 611.021 690.918 608.041 687.937Z" fill="#2A96F0"/>
<path d="M598.537 697.441C600.8 699.705 604.47 699.705 606.733 697.441C608.997 695.178 608.997 691.508 606.733 689.244C604.47 686.981 600.8 686.981 598.537 689.244C596.273 691.508 596.273 695.178 598.537 697.441Z" fill="#2A96F0"/>
<path d="M666.809 529.719C663.339 526.249 663.338 520.602 666.809 517.131C670.28 513.66 675.927 513.661 679.397 517.131C682.867 520.601 682.868 526.248 679.397 529.719C675.926 533.19 670.279 533.189 666.809 529.719ZM678.509 518.02C675.527 515.038 670.678 515.039 667.698 518.02C664.717 521 664.716 525.849 667.698 528.831C670.678 531.811 675.528 531.811 678.509 528.831C681.489 525.85 681.49 521.001 678.509 518.02Z" fill="#2A96F0"/>
<path d="M669.005 527.524C671.268 529.787 674.938 529.787 677.202 527.524C679.465 525.26 679.465 521.591 677.202 519.327C674.938 517.064 671.268 517.064 669.005 519.327C666.741 521.591 666.741 525.26 669.005 527.524Z" fill="#2A96F0"/>
<path d="M643.284 429.238C641.021 431.502 637.351 431.502 635.088 429.238C632.824 426.975 632.824 423.305 635.088 421.042C637.351 418.778 641.022 418.779 643.284 421.042C645.547 423.304 645.548 426.975 643.284 429.238Z" fill="#2A96F0"/>
<path d="M664.302 308.366C660.831 304.896 660.831 299.249 664.302 295.778C667.773 292.307 673.42 292.308 676.89 295.778C680.36 299.248 680.361 304.895 676.89 308.366C673.419 311.837 667.772 311.836 664.302 308.366ZM676.001 296.667C673.02 293.685 668.171 293.686 665.19 296.667C662.21 299.647 662.209 304.496 665.19 307.478C668.171 310.458 673.021 310.458 676.001 307.478C678.982 304.497 678.983 299.648 676.001 296.667Z" fill="#2A96F0"/>
<path d="M666.497 306.17C668.761 308.434 672.431 308.434 674.694 306.17C676.958 303.907 676.958 300.237 674.694 297.973C672.431 295.71 668.761 295.71 666.497 297.973C664.234 300.237 664.234 303.907 666.497 306.17Z" fill="#2A96F0"/>
<path d="M476.279 133.531C472.808 130.06 472.808 124.414 476.279 120.943C479.75 117.472 485.397 117.472 488.868 120.943C492.339 124.414 492.339 130.06 488.868 133.531C485.397 137.002 479.75 137.002 476.279 133.531ZM487.979 121.832C484.999 118.851 480.148 118.851 477.168 121.832C474.188 124.812 474.188 129.662 477.168 132.643C480.148 135.623 484.999 135.623 487.979 132.643C490.959 129.662 490.959 124.812 487.979 121.832Z" fill="#2A96F0"/>
<path d="M478.475 131.336C480.739 133.599 484.408 133.599 486.672 131.336C488.935 129.072 488.935 125.402 486.672 123.139C484.408 120.875 480.739 120.875 478.475 123.139C476.212 125.402 476.212 129.072 478.475 131.336Z" fill="#2A96F0"/>
<path d="M426.552 48.058C424.114 45.6205 424.114 41.6537 426.552 39.2162C428.989 36.7787 432.956 36.7787 435.394 39.2162C437.831 41.6537 437.831 45.6206 435.394 48.0581C432.956 50.4956 428.989 50.4955 426.552 48.058ZM434.505 40.1048C432.557 38.157 429.388 38.157 427.44 40.1048C425.492 42.0527 425.492 45.2216 427.44 47.1694C429.388 49.1173 432.557 49.1173 434.505 47.1694C436.453 45.2216 436.453 42.0527 434.505 40.1048Z" fill="#2A96F0"/>
<path d="M433.759 46.424C432.221 47.9622 429.726 47.9622 428.188 46.424C426.649 44.8858 426.649 42.3905 428.188 40.8523C429.726 39.3141 432.221 39.3141 433.759 40.8523C435.298 42.3905 435.298 44.8858 433.759 46.424Z" fill="#2A96F0"/>
<path d="M336.709 131.504C334.271 129.067 334.271 125.1 336.709 122.663C339.146 120.225 343.113 120.225 345.551 122.663C347.988 125.1 347.988 129.067 345.551 131.504C343.113 133.942 339.146 133.942 336.709 131.504ZM344.662 123.551C342.714 121.603 339.545 121.603 337.597 123.551C335.65 125.499 335.65 128.668 337.597 130.616C339.545 132.564 342.714 132.564 344.662 130.616C346.61 128.668 346.609 125.498 344.662 123.551Z" fill="#2A96F0"/>
<path d="M343.916 129.87C342.377 131.408 339.882 131.408 338.344 129.87C336.806 128.331 336.806 125.836 338.344 124.298C339.882 122.76 342.377 122.76 343.916 124.298C345.454 125.836 345.454 128.331 343.916 129.87Z" fill="#2A96F0"/>
<path d="M259.971 79.0009C257.533 76.5634 257.533 72.5966 259.971 70.1591C262.408 67.7216 266.375 67.7216 268.813 70.1591C271.25 72.5966 271.25 76.5634 268.813 79.0009C266.375 81.4384 262.408 81.4384 259.971 79.0009ZM267.924 71.0477C265.976 69.0998 262.807 69.0998 260.859 71.0477C258.912 72.9956 258.912 76.1644 260.859 78.1123C262.807 80.0602 265.976 80.0602 267.924 78.1123C269.872 76.1644 269.872 72.9956 267.924 71.0477Z" fill="#2A96F0"/>
<path d="M267.177 77.3658C265.638 78.9049 263.144 78.904 261.606 77.3658C260.068 75.8276 260.068 73.3323 261.606 71.7941C263.144 70.2559 265.639 70.2559 267.177 71.7941C268.716 73.3323 268.717 75.8267 267.177 77.3658Z" fill="#2A96F0"/>
<path d="M533.374 187.96C536.114 190.7 540.556 190.7 543.296 187.96C546.036 185.22 546.036 180.777 543.296 178.037C540.556 175.297 536.114 175.297 533.374 178.037C530.634 180.777 530.634 185.22 533.374 187.96Z" fill="#2A96F0"/>
<path d="M657.044 696.362C655.25 698.156 652.342 698.155 650.548 696.361C648.753 694.567 648.753 691.658 650.547 689.864C652.342 688.069 655.252 688.07 657.045 689.864C658.839 691.658 658.838 694.568 657.044 696.362Z" fill="#2A96F0"/>
<path d="M540.978 529.845C539.185 531.639 536.276 531.639 534.482 529.844C532.687 528.05 532.687 525.141 534.481 523.348C536.276 521.553 539.186 521.554 540.979 523.347C542.773 525.141 542.773 528.05 540.978 529.845Z" fill="#2A96F0"/>
<path d="M482.02 369.645C485.619 373.244 491.454 373.244 495.053 369.645C498.652 366.046 498.652 360.211 495.053 356.612C491.454 353.013 485.619 353.013 482.02 356.612C478.421 360.211 478.421 366.046 482.02 369.645Z" fill="#2A96F0"/>
<path d="M597.401 599.298C600.999 602.897 606.834 602.897 610.433 599.298C614.032 595.699 614.032 589.865 610.433 586.266C606.834 582.667 601 582.667 597.401 586.266C593.802 589.865 593.802 595.699 597.401 599.298Z" fill="#2A96F0"/>
<path d="M522.894 279.008C521.217 280.685 518.498 280.685 516.821 279.008C515.144 277.331 515.144 274.612 516.821 272.935C518.498 271.258 521.217 271.258 522.894 272.935C524.57 274.613 524.57 277.332 522.894 279.008Z" fill="#2A96F0"/>
<path d="M555.872 282.813C552.156 279.097 552.155 273.05 555.871 269.334C559.587 265.617 565.634 265.617 569.351 269.334C573.067 273.051 573.067 279.097 569.351 282.813C565.635 286.53 559.588 286.529 555.872 282.813ZM568.463 270.222C565.236 266.996 559.986 266.996 556.761 270.221C553.534 273.448 553.535 278.697 556.762 281.924C559.988 285.15 565.237 285.149 568.463 281.924C571.69 278.699 571.69 273.449 568.463 270.222Z" fill="#2A96F0"/>
<path d="M566.964 280.425C564.561 282.828 560.665 282.827 558.262 280.424C555.859 278.021 555.86 274.124 558.262 271.722C560.665 269.32 564.561 269.321 566.963 271.722C569.365 274.124 569.366 278.023 566.964 280.425Z" fill="#2A96F0"/>
<path d="M406.744 134.79C409.484 137.53 413.926 137.53 416.666 134.79C419.406 132.05 419.406 127.608 416.666 124.868C413.926 122.128 409.484 122.128 406.744 124.868C404.004 127.608 404.004 132.05 406.744 134.79Z" fill="#2A96F0"/>
<path d="M377.864 105.911C380.604 108.651 385.047 108.651 387.787 105.911C390.527 103.171 390.527 98.7285 387.787 95.9885C385.047 93.2485 380.604 93.2485 377.864 95.9885C375.124 98.7285 375.124 103.171 377.864 105.911Z" fill="#2A96F0"/>
<path d="M295.755 61.6321C298.495 64.3721 302.938 64.3721 305.678 61.6321C308.418 58.8921 308.418 54.4497 305.678 51.7097C302.938 48.9697 298.495 48.9697 295.755 51.7097C293.015 54.4497 293.015 58.8921 295.755 61.6321Z" fill="#2A96F0"/>
<path d="M503.6 185.001C504.664 186.065 506.388 186.065 507.452 185.001C508.515 183.938 508.515 182.214 507.452 181.15C506.388 180.087 504.664 180.087 503.6 181.15C502.537 182.214 502.537 183.938 503.6 185.001Z" fill="#2A96F0"/>
<path d="M559.144 210.62C561.025 212.501 564.075 212.501 565.956 210.62C567.837 208.739 567.837 205.689 565.956 203.808C564.075 201.926 561.025 201.926 559.144 203.808C557.263 205.689 557.263 208.739 559.144 210.62Z" fill="#2A96F0"/>
<path d="M460.951 112.426C462.832 114.308 465.882 114.308 467.763 112.426C469.644 110.545 469.644 107.495 467.763 105.614C465.882 103.733 462.832 103.733 460.951 105.614C459.07 107.495 459.07 110.545 460.951 112.426Z" fill="#2A96F0"/>
<path d="M362.383 46.7453C364.264 48.6264 367.314 48.6264 369.195 46.7453C371.077 44.8641 371.077 41.8142 369.195 39.9331C367.314 38.0519 364.264 38.0519 362.383 39.9331C360.502 41.8142 360.502 44.8641 362.383 46.7453Z" fill="#2A96F0"/>
<path d="M791.376 364.793L512.347 85.7646C512.102 85.5193 512.102 85.1212 512.347 84.876C512.592 84.6307 512.991 84.6307 513.236 84.876L792.265 363.905C792.51 364.15 792.51 364.548 792.265 364.793C792.019 365.039 791.621 365.039 791.376 364.793Z" fill="#2A96F0"/>
<path d="M506.867 86.2082C508.748 88.0893 511.798 88.0893 513.679 86.2081C515.56 84.327 515.56 81.2771 513.679 79.3959C511.798 77.5148 508.748 77.5148 506.867 79.396C504.986 81.2771 504.986 84.327 506.867 86.2082Z" fill="#2A96F0"/>
<path d="M787.65 704.772L638.562 555.684L638.562 425.135C638.562 424.788 638.844 424.506 639.191 424.506C639.537 424.506 639.819 424.788 639.819 425.135L639.818 555.163L788.539 703.883C788.784 704.129 788.784 704.527 788.539 704.772C788.293 705.017 787.896 705.018 787.65 704.772Z" fill="#2A96F0"/>
</svg>
